<svg xmlns="http://www.w3.org/2000/svg" width="75" height="73" viewBox="0 0 75 73">
  <defs>
    <style>
      .cls-1 {
        fill: #7a7a7a;
        fill-rule: evenodd;
      }
    </style>
  </defs>
  <path id="نقاشات" class="cls-1" d="M4156,2096.95v39.85c-0.04,3.44-3.78,6.24-7,6.2h-27v3.76l8.13,7.84c3.25,3.23-.66,3.86-1.76,2.76l-7.94-7.76-7.8,7.76c-2.1,1.64-4.46-.08-2.76-1.76l9.13-8.84V2143h-27c-3.45,0-7-2.77-7-6.2v-39.85l-0.75-.61a1.242,1.242,0,0,1-1.25-1.24v-8.86a1.248,1.248,0,0,1,1.25-1.24h72.5a1.248,1.248,0,0,1,1.25,1.24v8.86C4158,2095.89,4156,2096.95,4156,2096.95Zm-68,39.53a3.8,3.8,0,0,0,4,3.52h57a3.8,3.8,0,0,0,4-3.52V2097h-65v39.48Zm67-48.49h-69V2094h69v-6.01Zm-12,29.84h1.25a1.24,1.24,0,1,1,0,2.48h-5a1.25,1.25,0,0,1-1.19-.85,1.234,1.234,0,0,1,.44-1.38l2.5-1.87a5.559,5.559,0,0,0,2-2.12,1.25,1.25,0,0,0-2.5.01,1.25,1.25,0,0,1-2.5,0,3.75,3.75,0,0,1,7.5,0C4145.5,2115.63,4143.96,2117.08,4143,2117.83Zm-11.25,4.97a1.248,1.248,0,0,0,1.25-1.24,1.25,1.25,0,1,1,2.5,0,3.75,3.75,0,0,1-7.5,0v-4.98a3.75,3.75,0,0,1,7.5,0,1.25,1.25,0,0,1-2.5,0,1.25,1.25,0,0,0-2.5,0v4.98A1.248,1.248,0,0,0,4131.75,2122.8Zm-7.5,2.49a1.25,1.25,0,0,1-1.25-1.25v-6.21l-1.5,1.99a1.308,1.308,0,0,1-2,0l-1.5-1.99v6.21a1.25,1.25,0,0,1-2.5,0v-9.94a1.253,1.253,0,0,1,2.25-.75l2.75,3.65,2.75-3.65a1.255,1.255,0,0,1,1.39-.43,1.233,1.233,0,0,1,.86,1.18v9.94A1.25,1.25,0,0,1,4124.25,2125.29Zm-12.5-2.49h-5a1.245,1.245,0,1,1,0-2.49h5A1.245,1.245,0,1,1,4111.75,2122.8Zm0-4.97h-5a1.245,1.245,0,1,1,0-2.49h5A1.245,1.245,0,1,1,4111.75,2117.83Zm-10,4.97a1.245,1.245,0,1,1,0,2.49h-5a1.25,1.25,0,0,1-1.25-1.25v-9.94a1.25,1.25,0,0,1,1.25-1.25h5a1.245,1.245,0,1,1,0,2.49H4098v2.49h3.75a1.24,1.24,0,1,1,0,2.48H4098v2.49h3.75Z" transform="translate(-4083 -2085)"/>
</svg>
