<svg xmlns="http://www.w3.org/2000/svg" width="73" height="73" viewBox="0 0 73 73">
  <defs>
    <style>
      .cls-1 {
        fill: #593F7F;
        fill-rule: evenodd;
      }
    </style>
  </defs>
  <path id="امتحانات" class="cls-1" d="M3409.26,2137.41l-19.05,20.17a1.487,1.487,0,0,1-1.03.42h-8.73a1.451,1.451,0,0,1-1.45-1.45v-8.69a1.414,1.414,0,0,1,.43-1.02l19.05-20.17a5.474,5.474,0,0,1,7.87,0l2.91,2.89A5.3,5.3,0,0,1,3409.26,2137.41Zm-18.63,15.64,12.64-13.77-2.31-2.3-12.63,13.78Zm-8.72,2.05h6.67l-6.67-6.64v6.64Zm14.69-22.46-12.64,13.77,2.31,2.3,12.63-13.78Zm10.6-1.03-2.91-2.89a2.48,2.48,0,0,0-3.76,0l-1.88,1.87,6.67,6.64,1.88-1.87A2.429,2.429,0,0,0,3407.2,2131.61Zm-50.44,5.38a1.253,1.253,0,0,1,1.25,1.26v7.51a1.25,1.25,0,0,1-1.25,1.25h-7.52a1.259,1.259,0,0,1-1.26-1.25v-7.51a1.261,1.261,0,0,1,1.26-1.26h7.52ZM3351,2144h4v-4h-4v4Zm-1.76-25.99a1.259,1.259,0,0,1-1.26-1.25v-7.51a1.261,1.261,0,0,1,1.26-1.26h7.52a1.253,1.253,0,0,1,1.25,1.26v7.51a1.25,1.25,0,0,1-1.25,1.25h-7.52ZM3355,2111h-4v4h4v-4Zm3.38,13.88c-2,2-4.96,4.96-7.08,7.07l-4.24-4.24a1.578,1.578,0,0,1-.04-1.99,1.832,1.832,0,0,1,2.16-.13l2.12,2.12,4.95-4.95C3357.55,2121.46,3359.8,2123.46,3358.38,2124.88ZM3395,2124v-19h-10c-4.59.2-7-2.65-7-6v-11h-34c-2.01,0-3,.99-3,3v61c-0.01,1.01,1.85,3.05,3,3h30a1.505,1.505,0,1,1,0,3h-29.93a5.773,5.773,0,0,1-6.07-6.08v-60.84a6.082,6.082,0,0,1,6.07-6.08h36.85a1.2,1.2,0,0,1,.86.36L3398,2102q0,0.4-.03.81a1.079,1.079,0,0,1,.03.19v21A1.5,1.5,0,0,1,3395,2124Zm-14-34v8a4.114,4.114,0,0,0,3.78,4.03H3393Zm1.62,23.99h-17.25a1.505,1.505,0,0,1,0-3h17.25A1.505,1.505,0,0,1,3382.62,2113.99Zm0.11,15.01h-17.45a1.511,1.511,0,0,1,0-2.99h17.45A1.513,1.513,0,0,1,3382.73,2129Zm-18.74,13.49a1.436,1.436,0,0,1,1.37-1.5h10.29a1.507,1.507,0,0,1,0,3h-10.29A1.436,1.436,0,0,1,3363.99,2142.49Z" transform="translate(-3338 -2085)"/>
</svg>
