<svg xmlns="http://www.w3.org/2000/svg" width="76" height="73" viewBox="0 0 76 73">
  <defs>
    <style>
      .cls-1 {
        fill: #593F7F;
        fill-rule: evenodd;
      }
    </style>
  </defs>
  <path id="ملفات" class="cls-1" d="M3903,2092h-27c-0.57,0-.79-0.68-1.23-1.06l-7.26-4.57a5.567,5.567,0,0,0-3.65-1.37h-18.84a4.018,4.018,0,0,0-4,4.03L3841,2101h-6a3.746,3.746,0,0,0-4,3.69v49.28a4.016,4.016,0,0,0,3.99,4.03h57.99a4.018,4.018,0,0,0,4-4.03L3897,2145h6c2.2,0,4-1.34,4-3.56v-45.89C3907,2093.33,3905.2,2092,3903,2092Zm-10,63h-58a1.188,1.188,0,0,1-1-1v-34h60v34A0.838,0.838,0,0,1,3893,2155Zm1-38h-60v-12a1.188,1.188,0,0,1,1-1h19a1.872,1.872,0,0,1,1.4.47l7.26,4.57a4.442,4.442,0,0,0,3.34.96h27a1.188,1.188,0,0,1,1,1v6Zm10,22c0,0.44.21,3-3,3h-4l-0.02-30.78A4.176,4.176,0,0,0,3893,2107h-27a1.5,1.5,0,0,1-1.25-.4l-7.26-4.57A4.9,4.9,0,0,0,3854,2101h-10v-12a1.188,1.188,0,0,1,1-1h19a2.353,2.353,0,0,1,1.43.81l7.25,4.57A5.058,5.058,0,0,0,3876,2095h27a1.188,1.188,0,0,1,1,1v43Zm-16.57-13.68h-9.57a1.61,1.61,0,0,0,0,3.22h9.57A1.61,1.61,0,0,0,3887.43,2125.32Zm0,7.73h-9.57a1.61,1.61,0,0,0,0,3.22h9.57A1.61,1.61,0,0,0,3887.43,2133.05Z" transform="translate(-3831 -2085)"/>
</svg>
