<svg xmlns="http://www.w3.org/2000/svg" width="76" height="73" viewBox="0 0 76 73">
  <defs>
    <style>
      .cls-1 {
        fill: #593F7F;
        fill-rule: evenodd;
      }
    </style>
  </defs>
  <path id="واجبات" class="cls-1" d="M3654.67,2158h-63.34a6.338,6.338,0,0,1-6.33-6.33V2103s2.64-4.54,5-4v-3a1.4,1.4,0,0,1,.98-1.28A71.343,71.343,0,0,1,3611,2092a32.8,32.8,0,0,1,12.43,2.74c3.75-1.67,14.86-6.54,23.19-9.66a1.253,1.253,0,0,1,1.17.15A4.022,4.022,0,0,1,3649,2087v6.19a0.539,0.539,0,0,1,.25-0.03c8-1.61,6.68,4.35,6.68,2.77v3.23a2.966,2.966,0,0,1,.39-0.13c2.21-.55,4.68,4.03,4.68,4.03v48.61A6.338,6.338,0,0,1,3654.67,2158Zm-63.34-7.07a1.238,1.238,0,0,1-.76-0.25,3.025,3.025,0,0,1-.57-1.68v-45.57c-0.87,1.34-2,3.31-2,4.57v43a4.156,4.156,0,0,0,4,4h30v-4a33.9,33.9,0,0,0-11-2,95.566,95.566,0,0,0-19.32,1.88A1.024,1.024,0,0,1,3591.33,2150.93ZM3646,2089c-4.77,1.67-16.75,6.91-21,8.79V2140c3.86-2.2,12.35-5,21-8v-43Zm7,8c-1.92-.16-3.35.12-4,0v37a1.165,1.165,0,0,1-1,1c-11.14,3.71-23.22,8.61-23.35,8.69a1.255,1.255,0,0,1-1.27.01,3.545,3.545,0,0,1-1.38-1.7v-44c-1.57-.65-6.45-2.98-11-3a75.082,75.082,0,0,0-18,2v51a77.2,77.2,0,0,1,18-2,46.251,46.251,0,0,1,12.13,2.04,39.239,39.239,0,0,1,12.54-2.17A67.883,67.883,0,0,1,3653,2148v-51Zm2.93,5.88v46.79a1.247,1.247,0,0,1-.52,1.02,1.264,1.264,0,0,1-1.14.18,65.165,65.165,0,0,0-18.6-2.47c-4.75,0-8.82,1.95-10.67,2.6v4h30c2.1,0,3-.9,3-3v-45h0A17.818,17.818,0,0,0,3655.93,2102.88Zm-41.89,35.29c-9.15-2.22-14.93.74-15.04,0.77a1.523,1.523,0,0,1-.42.06,1.613,1.613,0,0,1-1.55-1.24,1.675,1.675,0,0,1,1.13-2.04c0.48-.13,6.68-3.21,16.61-0.79a1.668,1.668,0,0,1,1.2,2A1.6,1.6,0,0,1,3614.04,2138.17Zm0-10c-9.15-2.22-14.93.74-15.04,0.77a1.523,1.523,0,0,1-.42.06,1.613,1.613,0,0,1-1.55-1.24,1.675,1.675,0,0,1,1.13-2.04c0.48-.13,6.68-3.21,16.61-0.79a1.663,1.663,0,0,1,1.2,2A1.6,1.6,0,0,1,3614.04,2128.17Zm0-10c-9.15-2.23-14.93.74-15.04,0.77a1.523,1.523,0,0,1-.42.06,1.613,1.613,0,0,1-1.55-1.24,1.675,1.675,0,0,1,1.13-2.04c0.48-.14,6.68-3.21,16.61-0.8a1.674,1.674,0,0,1,1.2,2.01A1.608,1.608,0,0,1,3614.04,2118.17Zm0-10c-9.15-2.23-14.93.74-15.04,0.77a1.509,1.509,0,0,1-.42.05,1.614,1.614,0,0,1-1.55-1.23,1.67,1.67,0,0,1,1.13-2.04c0.48-.14,6.68-3.21,16.61-0.8a1.668,1.668,0,0,1,1.2,2A1.607,1.607,0,0,1,3614.04,2108.17Zm15.79-6.44c0.37-.19,5.61-2.24,10.21-3.66a1.518,1.518,0,0,1,1.89.96,1.471,1.471,0,0,1-.98,1.85c-4.37,1.35-9.67,3.42-9.76,3.47a1.478,1.478,0,0,1-.68.16,1.5,1.5,0,0,1-1.34-.81A1.444,1.444,0,0,1,3629.83,2101.73Zm0,8.82c0.37-.18,5.61-2.23,10.21-3.65a1.518,1.518,0,0,1,1.89.96,1.475,1.475,0,0,1-.98,1.85c-4.37,1.35-9.67,3.42-9.76,3.47a1.478,1.478,0,0,1-.68.16,1.5,1.5,0,0,1-1.34-.81A1.458,1.458,0,0,1,3629.83,2110.55Zm0,8.83c0.37-.18,5.61-2.23,10.21-3.65a1.51,1.51,0,0,1,1.89.96,1.475,1.475,0,0,1-.98,1.85c-4.37,1.35-9.67,3.42-9.76,3.47a1.615,1.615,0,0,1-.68.16,1.5,1.5,0,0,1-1.34-.81A1.458,1.458,0,0,1,3629.83,2119.38Zm0,8.83c0.37-.18,5.61-2.23,10.21-3.65a1.5,1.5,0,0,1,1.89.96,1.475,1.475,0,0,1-.98,1.85c-4.37,1.34-9.67,3.42-9.76,3.46a1.493,1.493,0,0,1-2.02-.64A1.458,1.458,0,0,1,3629.83,2128.21Z" transform="translate(-3585 -2085)"/>
</svg>
