<svg xmlns="http://www.w3.org/2000/svg" width="73" height="73" viewBox="0 0 73 73">
  <defs>
    <style>
      .cls-1 {
        fill: #593F7F;
        fill-rule: evenodd;
      }
    </style>
  </defs>
  <path id="اعدادات_" data-name="اعدادات " class="cls-1" d="M3162,2125.85a4.262,4.262,0,0,1-3.85,4.15h-6.3v0.05a2.536,2.536,0,0,0-2.42,1.62,2.07,2.07,0,0,0-.13.43,2.559,2.559,0,0,0,.43,1.58c0.08,0.09.15,0.18,0.25,0.28l4.95,4.95a4.326,4.326,0,0,1-.11,5.76h0l-6.15,6.15v0a4.285,4.285,0,0,1-5.71.16l-4.85-4.85a1.728,1.728,0,0,0-2.27-.53,2.584,2.584,0,0,0-1.62,2.42H3134v6.06a4.292,4.292,0,0,1-4.15,3.92h-8.7a4.247,4.247,0,0,1-4.15-3.85v-6.55l-0.29-.01a2.141,2.141,0,0,0-3.8-1.56l-0.21-.21-4.63,4.63a4.244,4.244,0,0,1-5.65-.22h0l-6.15-6.15h0a4.285,4.285,0,0,1-.16-5.71l4.85-4.85a1.765,1.765,0,0,0,.73-1.59c0-.01-0.01-0.02-0.01-0.03a2.87,2.87,0,0,0-.19-0.65,2.66,2.66,0,0,0-.83-1.06,2.52,2.52,0,0,0-1.08-.19h-6.73a4.254,4.254,0,0,1-3.85-4.15h0v-8.7h0a4.292,4.292,0,0,1,3.92-4.15h6.87c0.17,0,.31-0.02.46-0.03a2.578,2.578,0,0,0,1.15-1.28,1.7,1.7,0,0,0-.52-2.26l-4.87-4.85a4.294,4.294,0,0,1,.16-5.7h0l1.76-1.75,4.41-4.4h0a4.267,4.267,0,0,1,5.66-.21l4.68,4.67,0.23-.22a2.11,2.11,0,0,0,3.74-1.6l0.35-.01v-6.51a4.247,4.247,0,0,1,4.15-3.85h8.7a4.292,4.292,0,0,1,4.15,3.92v6.03h0.18a2.6,2.6,0,0,0,1.63,2.41,1.728,1.728,0,0,0,2.27-.53l4.86-4.85a4.32,4.32,0,0,1,5.72.16h0l6.16,6.15h0a4.313,4.313,0,0,1,.11,5.75l-4.96,4.95a1.729,1.729,0,0,0-.55,2.28,2.536,2.536,0,0,0,2.42,1.62V2113h6.24a4.292,4.292,0,0,1,3.92,4.15h0v8.7h0Zm-2.89.15h-0.05v-9a0.956,0.956,0,0,0-.98-1h-6.87a4.991,4.991,0,0,1-4.9-3,4.616,4.616,0,0,1-.22-2.55,5.638,5.638,0,0,1,1.76-3.58l4.95-4.94a0.973,0.973,0,0,0,0-1.42l-6.37-6.35,0.04-.04h0a0.959,0.959,0,0,0-1.4-.02l-4.87,4.85a6.489,6.489,0,0,1-1.37,1.05,5.378,5.378,0,0,1-4.83.69,4.991,4.991,0,0,1-3-4.9v-6.87a0.956,0.956,0,0,0-1-.98h-9v-0.05h0a0.946,0.946,0,0,0-1,.96v6.73a4.887,4.887,0,0,1-3,4.81,3.281,3.281,0,0,1-.66.19c-0.06.03-.11,0.07-0.16,0.09a4.894,4.894,0,0,1-5.53-1.27l-4.77-4.76a0.948,0.948,0,0,0-1.39.03h-0.01l0.05,0.04-6.38,6.35a0.959,0.959,0,0,0-.01,1.4l4.75,4.74,0.19-.2c1.52,1.55,2.44,3.97,1.61,6a4.991,4.991,0,0,1-4.9,3h-6.87a0.956,0.956,0,0,0-.98,1v9h-0.05a0.946,0.946,0,0,0,.96,1h6.2v-0.05a7.105,7.105,0,0,1,.91.07,4.828,4.828,0,0,1,4.33,2.78,2.013,2.013,0,0,1,.14.25,4.89,4.89,0,0,1-1.01,5.21,7.267,7.267,0,0,1-.61.74l-0.04-.04-4.54,4.53a0.959,0.959,0,0,0,.01,1.4l6.37,6.37-0.05.04h0.01a0.936,0.936,0,0,0,1.38.02l4.77-4.76a4.9,4.9,0,0,1,5.52-1.28c0.14,0.06.26,0.15,0.39,0.22,0.13,0.04.25,0.06,0.37,0.11a4.887,4.887,0,0,1,3,4.81v6.73a0.946,0.946,0,0,0,1,.96h0v-0.05h9a0.956,0.956,0,0,0,1-.98v-6.87a4.991,4.991,0,0,1,3-4.9,5.08,5.08,0,0,1,4.15.32,5.958,5.958,0,0,1,2.08,1.38l4.85,4.85a0.959,0.959,0,0,0,1.4-.01h0.01l-0.05-.04,6.37-6.37a0.962,0.962,0,0,0,0-1.41l-4.95-4.95a5.117,5.117,0,0,1-1.42-5.66c0.03-.06.07-0.11,0.09-0.16a1.975,1.975,0,0,1,.08-0.26,4.887,4.887,0,0,1,4.81-3h6.73a0.946,0.946,0,0,0,.96-1h0Zm-33.64,9.99a14.679,14.679,0,0,1-14.48-14.41A14.882,14.882,0,0,1,3125.5,2107c7.8-.02,14.5,6.19,14.5,13.99S3133.26,2136,3125.47,2135.99Zm0.01-25.42a11.005,11.005,0,0,0,0,22.01c6.06-.01,11.16-5.61,11.15-11.62C3136.62,2114.89,3131.54,2110.57,3125.48,2110.57Z" transform="translate(-3089 -2085)"/>
</svg>
