<svg xmlns="http://www.w3.org/2000/svg" width="73.03" height="73" viewBox="0 0 73.03 73">
  <defs>
    <style>
      .cls-1 {
        fill: #7a7a7a;
        fill-rule: evenodd;
      }
    </style>
  </defs>
  <path id="طلاب" class="cls-1" d="M3504.8,2121.5a4.854,4.854,0,0,0,4.8-4.21l4.45-3.34a1.221,1.221,0,0,0,.24-1.7,1.2,1.2,0,0,0-1.7-.24l-3.1,2.32a3.659,3.659,0,0,0-3.47-2.57h-4.87a3.65,3.65,0,1,1-7.3,0h-4.87a3.637,3.637,0,0,0-3.46,2.57l-3.11-2.32a1.2,1.2,0,0,0-1.7.24,1.221,1.221,0,0,0,.24,1.7l4.45,3.34a4.862,4.862,0,0,0,4.8,4.21h2.43a4.87,4.87,0,0,1,9.74,0h2.43Zm-9.73-4.87a2.441,2.441,0,0,1-2.44,2.43h-2.43a2.433,2.433,0,0,1-2.43-2.43v-1.22a1.208,1.208,0,0,1,1.21-1.21h4.87a1.216,1.216,0,0,1,1.22,1.21v1.22h0Zm4.86,0v-1.22a1.216,1.216,0,0,1,1.22-1.21h4.87a1.208,1.208,0,0,1,1.21,1.21v1.22a2.433,2.433,0,0,1-2.43,2.43h-2.43A2.441,2.441,0,0,1,3499.93,2116.63Zm34.03,39.85S3533.94,2143,3508,2143v-1c0-1.3-3-1.3-3,0v3a7.751,7.751,0,0,1-8.05,7.07c-7.05-.01-6.95-6.33-6.95-7.07v-3c0-1.3-3-1.3-3,0v1c-27.81,0-26,13-26,13a1.827,1.827,0,0,0,.93,1.96,2.027,2.027,0,0,0,2.07-.96s-2.01-11,23-11c0.44,3.48,3.16,9,10,9a11.1,11.1,0,0,0,11-9c21.5,0,23.6,11.07,23.6,11.07a1.223,1.223,0,0,0,1.18.93,1.544,1.544,0,0,0,.3-0.04A1.217,1.217,0,0,0,3533.96,2156.48Zm-64.6-65.41,27.98,4.65a0.915,0.915,0,0,0,.16.01,0.86,0.86,0,0,0,.16-0.01l26.61-4.47v4.22c-0.77.86-2.44,3-2.44,5.34a3.65,3.65,0,0,0,7.3,0c0-2.34-1.67-4.48-2.43-5.34v-5.61a1.335,1.335,0,0,0-.09-0.45,0.6,0.6,0,0,0-.09-0.13,0.776,0.776,0,0,0-.16-0.24,0.806,0.806,0,0,0-.14-0.12,1.023,1.023,0,0,0-.22-0.14,0.636,0.636,0,0,0-.18-0.06,1.266,1.266,0,0,0-.18-0.06l-27.98-3.65a1.71,1.71,0,0,0-.32,0l-27.98,3.65A1.215,1.215,0,0,0,3469.36,2091.07Zm57.34,9.74a1.215,1.215,0,1,1-2.43,0,5.663,5.663,0,0,1,1.21-2.96A5.6,5.6,0,0,1,3526.7,2100.81ZM3497,2088l19.08,1.86-18.58,2.43-18.58-2.43Zm3.3,41.14a6.885,6.885,0,0,1-3.3.86c-1.82,0-2.24-.8-2.3-0.86a1.216,1.216,0,0,0-1.71,1.73A4.519,4.519,0,0,0,3497,2133a7.574,7.574,0,0,0,5.01-2.13,1.21,1.21,0,0,0,.01-1.7A1.235,1.235,0,0,0,3500.3,2129.14Zm-22.26-19.6c-1.42.5-3.04,1.87-3.04,3.46v5a4.485,4.485,0,0,0,3,4c-0.56-1.64,3.27,19,19,19,15,0,20.84-21.47,20-19a4.485,4.485,0,0,0,3-4v-5c0-1.59-1.62-2.96-3.03-3.46v-7.43a1.216,1.216,0,0,0-1.22-1.21c-0.67,0-1.75.43-1.75,1.1v8a2.345,2.345,0,0,0,1.75,1.76,1.225,1.225,0,0,1,1.22,1.22v4.87a1.216,1.216,0,0,1-1.22,1.21,1.2,1.2,0,0,0-1.15.84c-0.25.68-4.12,18.1-17.6,18.1s-16.35-17.42-16.59-18.1a1.225,1.225,0,0,0-1.16-.84,1.208,1.208,0,0,1-1.21-1.21v-4.87a1.216,1.216,0,0,1,1.21-1.22A2.345,2.345,0,0,0,3481,2110v-15c0-.67-1.08-1.1-1.75-1.1a1.208,1.208,0,0,0-1.21,1.21v14.43h0Zm0-14.81v8.52a1.226,1.226,0,0,0,.67,1.09c0.31,0.15,7.18,3.66,18.29,3.66a50.317,50.317,0,0,0,19.29-3.66,1.217,1.217,0,0,0,.68-1.09v-8.52c0-1.54-2.97-1.27-2.97.27v7a46.479,46.479,0,0,1-17,3,39.662,39.662,0,0,1-16-3v-7C3481,2093.46,3478.04,2093.19,3478.04,2094.73Z" transform="translate(-3460.97 -2085)"/>
</svg>
