<svg xmlns="http://www.w3.org/2000/svg" width="320" height="320" viewBox="0 0 320 320">
  <defs>
    <style>
      .cls-1 {
        fill: #fff;
        fill-rule: evenodd;
      }
    </style>
  </defs>
  <path class="cls-1" d="M301,140H499a61,61,0,0,1,61,61V399a61,61,0,0,1-61,61H301a61,61,0,0,1-61-61V201A61,61,0,0,1,301,140Zm-6,284,26.816,2.9,0.215,0.021c0.549,0.049,1.111.075,1.673,0.075,4.337-.006,11.117.924,14.3-2,3.7-3.443,12.022-8.784,11.822-13.756l-0.137-4.078,4.105,0.139c4.847,0.217,4.825-1.829,8.21-5.305,3.252-3.314,8.767-8.66,8.643-13.3l-0.152-4.22,4.206,0.144c0.406,0.011.765,0.011,1.12,0,4.625-.157,5.059-1.288,8.183-4.628s7.565-7.486,7.409-12.052l-0.137-4.149,4.172,0.145c4.716,0.179,5.19.4,8.556-2.944l22-22c17.809,5.56,33.742,3.357,51-4,19.36-8.251,38.156-26.5,46-46a91.3,91.3,0,0,0-1-69c-17.153-39.855-68.034-61.035-108-44-37.6,16.027-65.131,61.87-53,100l-78.183,79.221a16.915,16.915,0,0,0-5.01,10.63L275,400C274.205,409.265,285.807,423,295,424Zm3.6-54.339a5.631,5.631,0,0,1,1.685-3.581L385.206,281.4a64.488,64.488,0,1,1,34.151,34.054l-27.9,27.838a5.844,5.844,0,0,1-4.343,1.7l-15.2-.532,0.5,15.2a5.805,5.805,0,0,1-6,6l-15.26-.52,0.548,15.18A5.908,5.908,0,0,1,350,384.628a5.586,5.586,0,0,1-4.343,1.7l-15.222-.516,0.51,15.183a5.77,5.77,0,0,1-1.83,4.453A5.866,5.866,0,0,1,325.149,407c-0.211,0-.426-0.009-0.641-0.028l-23.342-2.584a5.838,5.838,0,0,1-5.181-6.3ZM452.339,248.514a18.3,18.3,0,1,0,0-25.837A18.354,18.354,0,0,0,452.339,248.514ZM318.522,371.6a4.416,4.416,0,0,0,6.206,0l72.257-72.065a61.628,61.628,0,0,1-5.5-6.833l-72.959,72.73A4.361,4.361,0,0,0,318.522,371.6Z" transform="translate(-240 -140)"/>
</svg>
