<svg xmlns="http://www.w3.org/2000/svg" width="320" height="320" viewBox="0 0 320 320">
  <defs>
    <style>
      .cls-1 {
        fill: #594180;
        fill-rule: evenodd;
      }
    </style>
  </defs>
  <path class="cls-1" d="M499,140H301a61,61,0,0,0-61,61V399a61,61,0,0,0,61,61H499a61,61,0,0,0,61-61V201A61,61,0,0,0,499,140Zm6,284-26.816,2.9-0.215.021c-0.549.049-1.111,0.075-1.673,0.075-4.337-.006-11.117.924-14.3-2-3.7-3.443-12.022-8.784-11.822-13.756l0.137-4.078-4.105.139c-4.847.217-4.825-1.829-8.21-5.305-3.252-3.314-8.767-8.66-8.643-13.3l0.152-4.22-4.206.144c-0.406.011-.765,0.011-1.12,0-4.625-.157-5.059-1.288-8.183-4.628s-7.565-7.486-7.409-12.052l0.137-4.149-4.172.145c-4.716.179-5.19,0.4-8.556-2.944l-22-22c-17.809,5.56-33.742,3.357-51-4-19.36-8.251-38.156-26.5-46-46a91.3,91.3,0,0,1,1-69c17.153-39.855,68.034-61.035,108-44,37.6,16.027,65.131,61.87,53,100l78.183,79.221a16.915,16.915,0,0,1,5.01,10.63L525,400C525.795,409.265,514.193,423,505,424Zm-3.6-54.339a5.631,5.631,0,0,0-1.685-3.581L414.794,281.4a64.488,64.488,0,1,0-34.151,34.054l27.9,27.838a5.844,5.844,0,0,0,4.343,1.7l15.2-.532-0.5,15.2a5.805,5.805,0,0,0,6,6l15.26-.52-0.548,15.18A5.908,5.908,0,0,0,450,384.628a5.586,5.586,0,0,0,4.343,1.7l15.222-.516-0.51,15.183a5.77,5.77,0,0,0,1.83,4.453A5.866,5.866,0,0,0,474.851,407c0.211,0,.426-0.009.641-0.028l23.342-2.584a5.838,5.838,0,0,0,5.181-6.3ZM347.661,248.514a18.3,18.3,0,1,1,0-25.837A18.354,18.354,0,0,1,347.661,248.514ZM481.478,371.6a4.416,4.416,0,0,1-6.206,0l-72.257-72.065a61.628,61.628,0,0,0,5.5-6.833l72.959,72.73A4.361,4.361,0,0,1,481.478,371.6Z" transform="translate(-240 -140)"/>
</svg>
