<?xml version="1.0" encoding="utf-8"?>
<!-- Generator: Adobe Illustrator 19.2.0, SVG Export Plug-In . SVG Version: 6.00 Build 0)  -->
<svg version="1.1" id="Layer_1" xmlns="http://www.w3.org/2000/svg" xmlns:xlink="http://www.w3.org/1999/xlink" x="0px" y="0px"
	 viewBox="0 0 32 32" style="enable-background:new 0 0 32 32;" xml:space="preserve">
<style type="text/css">
	.st0{fill:#9E9E9E;}
</style>
<title>logo--ci</title>
<path class="st0" d="M16,0.2c0,0-0.1,0-0.1,0C7.1,0.2,0,7.2,0,16s7.1,15.8,15.8,15.8c8.8,0,15.8-7.1,15.8-15.8c0,0,0,0,0-0.1
	C31.7,7.2,24.7,0.2,16,0.2L16,0.2z M19.4,8.1l1.3-2.3c0.1-0.1,0.2-0.2,0.4-0.2c0.1,0,0.2,0,0.2,0.1c0.1,0.1,0.2,0.2,0.2,0.4
	c0,0.1,0,0.2-0.1,0.2l-1.3,2.3c-0.1,0.1-0.2,0.2-0.4,0.2c-0.1,0-0.2,0-0.2-0.1l0,0c-0.1-0.1-0.2-0.2-0.2-0.4
	C19.4,8.2,19.4,8.1,19.4,8.1L19.4,8.1z M15.5,4.6L15.5,4.6C15.5,4.6,15.5,4.6,15.5,4.6c0-0.3,0.2-0.5,0.5-0.5l0,0l0,0
	c0.3,0,0.5,0.2,0.5,0.5c0,0,0,0,0,0l0,2.7c0,0,0,0,0,0c0,0.3-0.2,0.5-0.5,0.5c0,0,0,0,0,0l0,0v0c-0.3,0-0.5-0.2-0.5-0.5c0,0,0,0,0,0
	L15.5,4.6z M10.5,5.6c0.1,0,0.1-0.1,0.2-0.1c0.2,0,0.3,0.1,0.4,0.2l1.3,2.3c0,0.1,0.1,0.1,0.1,0.2c0,0.2-0.1,0.3-0.2,0.4
	c-0.1,0-0.1,0.1-0.2,0.1c-0.2,0-0.3-0.1-0.4-0.2l-1.3-2.3c0-0.1-0.1-0.1-0.1-0.2C10.3,5.8,10.4,5.7,10.5,5.6L10.5,5.6z M6.6,9.5
	c0.1-0.1,0.2-0.2,0.4-0.2c0.1,0,0.2,0,0.2,0.1l2.3,1.3c0,0,0,0,0,0c0.1,0.1,0.2,0.2,0.2,0.4c0,0.1,0,0.2-0.1,0.2
	c-0.1,0.1-0.2,0.2-0.4,0.2c-0.1,0-0.2,0-0.2-0.1l-2.3-1.3c0,0,0,0,0,0c-0.1-0.1-0.2-0.2-0.2-0.4C6.5,9.7,6.5,9.6,6.6,9.5L6.6,9.5z
	 M4.8,15C4.8,15,4.8,15,4.8,15c0-0.3,0.2-0.5,0.5-0.5c0,0,0,0,0,0h3c0.3,0,0.5,0.2,0.5,0.5s-0.2,0.5-0.5,0.5h-3h0
	C5,15.5,4.8,15.3,4.8,15C4.8,15,4.8,15,4.8,15L4.8,15z M9.5,19.3l-2.3,1.4c-0.1,0-0.1,0.1-0.2,0.1c-0.3,0-0.5-0.2-0.5-0.5
	c0-0.2,0.1-0.3,0.2-0.4l2.3-1.4c0.1,0,0.1-0.1,0.2-0.1c0.2,0,0.3,0.1,0.4,0.2c0,0.1,0.1,0.1,0.1,0.2C9.7,19.1,9.7,19.2,9.5,19.3
	L9.5,19.3z M13.1,22.9L13.1,22.9c-0.3,0-0.5-0.2-0.5-0.5c0,0,0,0,0,0l0,0c0-0.3,0.2-0.5,0.5-0.5c0,0,0,0,0,0h2.5l0-4.7
	c0,0,0,0,0-0.1v-0.3c0,0,0,0,0,0c0-0.3-0.1-0.5-0.2-0.7c-0.2-0.3-0.6-0.5-1-0.5c-0.1,0-0.1,0-0.2,0l-0.5,0c0.1,0.2,0.1,0.4,0.2,0.5
	c0.1,0.2,0.2,0.4,0.4,0.6c0.1,0.1,0.3,0.2,0.5,0.2c0,0,0,0,0,0h0c0.2,0,0.4,0.2,0.4,0.5c0,0,0,0,0,0l0,0c0,0.3-0.2,0.5-0.5,0.5
	c0,0,0,0,0,0c-0.5,0-0.9-0.2-1.2-0.5c-0.3-0.3-0.5-0.6-0.6-0.9c-0.2-0.4-0.3-0.8-0.4-1.3l-0.1-0.6h1.6c0,0,0.1,0,0.1,0
	c0.7,0,1.3,0.3,1.7,0.8c0-0.1,0.1-0.1,0.1-0.2c0.4-0.4,1-0.6,1.6-0.6c0,0,0.1,0,0.1,0h1.6l-0.1,0.5c-0.1,0.5-0.2,0.9-0.4,1.3
	c-0.1,0.3-0.3,0.6-0.6,0.9c-0.3,0.3-0.7,0.5-1.2,0.5h0c-0.3,0-0.5-0.2-0.5-0.5c0-0.3,0.2-0.5,0.5-0.5c0,0,0,0,0,0
	c0.2,0,0.4-0.1,0.5-0.2c0.2-0.2,0.3-0.4,0.4-0.6c0.1-0.2,0.1-0.3,0.2-0.5l-0.5,0c0,0-0.1,0-0.1,0c-0.4,0-0.7,0.1-0.9,0.3
	c-0.2,0.2-0.3,0.5-0.3,0.9c0,0,0,0,0,0.1c0,0,0,0,0,0l0,5h2.3c0.3,0,0.5,0.2,0.5,0.5c0,0.2-0.1,0.4-0.3,0.4l-5.8,2.2
	c0,0-0.1,0-0.2,0c-0.2,0-0.4-0.1-0.4-0.3l0,0c0,0,0-0.1,0-0.2c0-0.2,0.1-0.4,0.3-0.4l3.4-1.3L13.1,22.9L13.1,22.9z M14.8,26.8
	c0.3,0.1,0.6,0.1,1,0.1c0.2,0,0.4,0,0.6-0.1c0.8-0.2,1.6-0.5,2.2-0.9c0.1,0,0.1-0.1,0.2-0.1c0.2,0,0.3,0.1,0.4,0.2
	c0,0.1,0.1,0.2,0.1,0.3c0,0.2-0.1,0.3-0.2,0.4c-0.7,0.5-1.6,0.9-2.6,1.1c-0.3,0-0.5,0.1-0.8,0.1c0,0,0,0,0,0c0,0,0,0,0,0
	c-0.4,0-0.9-0.1-1.3-0.2c-0.6-0.2-1.2-0.5-1.7-1c0,0-0.1-0.1-0.1-0.1c0-0.1,0-0.1,0-0.2c0-0.2,0.1-0.4,0.3-0.4l5.7-2.2
	c0,0,0.1,0,0.2,0c0.2,0,0.4,0.1,0.4,0.3l0,0c0,0,0,0.1,0,0.2c0,0.2-0.1,0.4-0.3,0.4l-5,1.9C14.3,26.6,14.5,26.7,14.8,26.8L14.8,26.8
	z M22,15C22,15,22,15,22,15c0,1.6-0.6,3.1-1.7,4.2c-0.4,0.4-0.8,1-1,1.5c0,0.3-0.2,0.5-0.5,0.5s-0.5-0.2-0.5-0.4
	c0-0.3,0.1-0.6,0.2-0.8c0.3-0.5,0.6-1,1-1.4l0,0c0.9-0.9,1.4-2.2,1.4-3.6c0,0,0,0,0,0v0c0,0,0-0.1,0-0.2c0-1.3-0.5-2.6-1.4-3.4
	c-0.9-1-2.2-1.5-3.7-1.5c-2.9,0-5.2,2.3-5.2,5.2c0,1.4,0.5,2.6,1.4,3.6c0,0,0,0,0,0c1.1,1.3,1.2,1.8,1.2,2.2c0,0.2-0.2,0.4-0.4,0.4
	c0,0,0,0,0,0c-0.2,0-0.4-0.2-0.5-0.4c-0.2-0.6-0.6-1.1-1-1.6c-1-1.1-1.7-2.6-1.7-4.2c0-1.7,0.7-3.2,1.8-4.3c1.1-1.1,2.6-1.8,4.3-1.8
	c0,0,0,0,0,0c0,0,0,0,0,0c0.9,0,1.7,0.2,2.4,0.5l0,0c2.1,0.9,3.6,3,3.6,5.4C22,14.8,22,14.9,22,15L22,15z M22.4,10.7l2.3-1.4
	c0,0,0,0,0,0c0,0,0,0,0,0c0.1,0,0.1-0.1,0.2-0.1c0.2,0,0.3,0.1,0.4,0.2c0,0.1,0.1,0.1,0.1,0.2c0,0.2-0.1,0.3-0.2,0.4l-2.3,1.4
	c-0.1,0-0.1,0.1-0.2,0.1h0c-0.3,0-0.5-0.2-0.5-0.5C22.2,11,22.3,10.8,22.4,10.7L22.4,10.7z M25.4,20.5c-0.1,0.1-0.2,0.2-0.4,0.2
	c-0.1,0-0.2,0-0.2-0.1l-2.3-1.3c-0.1-0.1-0.2-0.2-0.2-0.4c0-0.1,0-0.2,0.1-0.2c0.1-0.1,0.2-0.2,0.4-0.2c0.1,0,0.2,0,0.2,0.1l2.3,1.3
	c0,0,0,0,0,0c0.1,0.1,0.2,0.2,0.2,0.4C25.4,20.3,25.4,20.4,25.4,20.5L25.4,20.5z M26.7,15.5h-3c-0.3,0-0.5-0.2-0.5-0.5
	s0.2-0.5,0.5-0.5h3c0.3,0,0.5,0.2,0.5,0.5S27,15.5,26.7,15.5L26.7,15.5z"/>
</svg>
