<?xml version="1.0" encoding="utf-8"?>
<!-- Generated by IcoMoon.io -->
<!DOCTYPE svg PUBLIC "-//W3C//DTD SVG 1.1//EN" "http://www.w3.org/Graphics/SVG/1.1/DTD/svg11.dtd">
<svg version="1.1" xmlns="http://www.w3.org/2000/svg" xmlns:xlink="http://www.w3.org/1999/xlink" width="114" height="32" viewBox="0 0 114 32">
<path fill="#5a4180" d="M0.001 9.825c0.203 1.446 0.319 3.117 0.319 4.815 0 0.339-0.005 0.677-0.014 1.014 0.001 3.234-0.195 5.556-0.195 6.055-0.015 0.054-0.023 0.115-0.023 0.179 0 0.393 0.318 0.711 0.711 0.711 0.066 0 0.129-0.009 0.19-0.026 0.962 0.001 1.792-0.034 2.53-0.034h2.324c1.244 0 1.84-0.178 1.84-1.12-0.031-0.529-0.173-1.018-0.402-1.454-0.635 0.307-1.387 0.475-2.178 0.475-0.111 0-0.22-0.003-0.329-0.010-0.426 0.001-1.18-0.017-1.763-0.053 0.018-0.814 0.034-2.084 0.052-3.282 1.509 0 2.603 0.036 2.814 0.036 1.035 0 1.509-0.29 1.509-1.138-0.015-0.406-0.11-0.786-0.271-1.129-0.742 0.187-1.603 0.284-2.486 0.284-0.186 0-0.371-0.004-0.555-0.013-0.356 0.001-0.685 0.001-0.975-0.017l0.052-3.236c0.864-0.027 1.653-0.044 1.847-0.044 0.12-0.009 0.26-0.014 0.402-0.014 0.752 0 1.469 0.147 2.125 0.414 0.215-0.446 0.376-0.961 0.403-1.512 0-0.787-0.416-1.075-1.39-1.075s-2.526 0.192-4.162 0.192c-0.42-0.002-1.196-0.020-2.375-0.059v0.036zM9.055 9.665c0.331 1.176 0.522 2.526 0.522 3.921 0 0.33-0.011 0.657-0.032 0.982 0.002 2.662-0.175 5.303-0.175 6.381 0 1.323 0.754 1.628 3.001 1.628 5.188 0 8.178-2.437 8.327-6.197 0-0.105 0-0.971 0-1.077 0.001-0.044 0.002-0.096 0.002-0.148 0-1.946-1.065-3.643-2.643-4.54-1.271-0.677-2.748-1.066-4.317-1.066-0.214 0-0.426 0.007-0.637 0.022-0.276 0-1.639 0.071-4.048 0.096zM12.548 20.003c-0.052-0.928-0.068-1.927-0.068-2.976 0-1.506 0.018-3.701 0.085-5.093 0.288-0.050 0.619-0.079 0.957-0.079 0.030 0 0.061 0 0.091 0.001 0.113-0.014 0.249-0.021 0.387-0.021 1.982 0 3.589 1.607 3.589 3.589 0 0.018-0 0.036-0 0.054 0 0.051 0 0.867 0 0.922 0.001 0.032 0.002 0.070 0.002 0.108 0 2.004-1.624 3.628-3.628 3.628-0.147 0-0.292-0.009-0.435-0.026-0.338-0.002-0.682-0.040-1.014-0.111zM30.504 19.887c-0.949 0.318-2.042 0.501-3.177 0.501-0.269 0-0.537-0.010-0.801-0.031-0.685 0.002-1.032-0.051-1.032-0.288 0.352-0.87 0.812-1.62 1.375-2.28 2.033-2.842 3.868-5.484 3.868-6.851-0.018-0.525-0.239-0.995-0.585-1.339-0.516 0.078-1.112 0.123-1.718 0.123-0.043 0-0.086-0-0.129-0.001-1.809 0-3.624-0.105-4.625-0.105-1.314 0-1.883 0.272-1.883 1.164 0.036 0.54 0.17 1.040 0.384 1.496 0.707-0.319 1.539-0.49 2.412-0.49 0.123 0 0.245 0.003 0.366 0.010 0.165-0.029 0.375-0.045 0.589-0.045 0.618 0 1.204 0.136 1.731 0.379-0.418 1.031-0.96 1.928-1.635 2.706-1.041 1.425-2.657 3.612-3.381 4.89-0.264 0.421-0.426 0.93-0.441 1.475 0.008 0.539 0.23 1.021 0.585 1.369 0.431-0.127 0.926-0.201 1.438-0.201 0.013 0 0.026 0 0.040 0 1.474 0 3.127 0.178 4.992 0.178 1.39 0 2-0.236 2-1.269-0.026-0.512-0.158-0.987-0.374-1.412zM43.677 21.487c-0.592-0.743-1.104-1.591-1.497-2.502-1.402-3.128-2.138-6.257-2.732-7.58-0.199-1.034-1.087-1.808-2.16-1.829-0.737 0.022-1.416 0.241-1.994 0.605 0.192 0.221 0.35 0.483 0.48 0.76-2.218 5.472-4.186 9.205-4.186 10.441 0 0.814 0.389 1.102 1.28 1.102 0.581-0.004 1.127-0.153 1.604-0.412-0.080-0.136-0.117-0.304-0.119-0.481 0.084-0.817 0.337-1.56 0.725-2.214l4.224 0.025c0.711 2.155 1.093 3.116 2.18 3.116 0.855-0.1 1.607-0.476 2.18-1.034l0.015 0.001zM35.878 17.398c0.423-1.147 0.889-2.489 1.374-3.662 0.432 1.095 0.857 2.427 1.264 3.662h-2.629zM56.193 21.814c-0.17-1.046-0.268-2.251-0.268-3.479 0-0.162 0.002-0.324 0.005-0.485-0-2.778 0.161-5.455 0.161-6.506 0-1.278-0.263-1.769-1.323-1.769-0.649 0.043-1.248 0.226-1.776 0.519 0.505 1.229 0.785 2.664 0.785 4.164 0 0.392-0.019 0.78-0.057 1.162 0.004 0.547-0.012 2.085-0.048 3.048-2.9-3.538-4.636-6.731-5.552-7.746-0.382-0.674-1.094-1.121-1.911-1.121-0.824 0-1.541 0.455-1.915 1.128 0.858 0.553 0.928 1.841 0.928 4.1 0.036 0.441 0.056 0.954 0.056 1.472 0 2.052-0.318 4.030-0.908 5.887 0.595 0.176 1.257 0.371 1.963 0.395 0.907 0 1.252-0.473 1.252-1.6 0-0.745-0.144-3.616-0.162-6.795 2.756 3.284 4.85 6.599 6.308 8.404 0.992-0.25 1.815-0.518 2.615-0.833zM66.859 19.363c-0.681 0.442-1.513 0.706-2.406 0.711-0.064 0.004-0.136 0.006-0.21 0.006-1.836 0-3.34-1.419-3.476-3.219-0.019-0.177-0.027-0.771-0.027-0.947-0.002-0.044-0.003-0.096-0.003-0.149 0-2.005 1.625-3.63 3.63-3.63 0.111 0 0.22 0.005 0.328 0.015 0.012-0.002 0.043-0.002 0.074-0.002 0.726 0 1.413 0.168 2.024 0.468 0.315-0.49 0.539-1.074 0.591-1.707 0.001-0.862-0.771-1.228-2.339-1.228-0.052-0.001-0.114-0.002-0.176-0.002-1.852 0-3.562 0.609-4.941 1.637-1.427 1.093-2.352 2.822-2.352 4.768 0 0.015 0 0.029 0 0.044 0 0.19 0 0.8 0.023 0.984 0.263 3.241 2.8 5.451 6.642 5.451 2.162 0 3.264-0.587 3.264-1.637-0.032-0.603-0.267-1.146-0.635-1.567zM69.224 9.658c0.202 1.54 0.317 3.322 0.317 5.13 0 0.347-0.004 0.693-0.013 1.039 0.001 3.232-0.195 5.385-0.195 5.885-0.015 0.054-0.023 0.115-0.023 0.179 0 0.393 0.318 0.711 0.711 0.711 0.066 0 0.129-0.009 0.19-0.026 0.962 0.001 1.792-0.034 2.53-0.034h2.076c1.244 0 1.84-0.178 1.84-1.12-0.033-0.53-0.176-1.020-0.408-1.456-0.635 0.307-1.387 0.475-2.178 0.475-0.111 0-0.22-0.003-0.329-0.010q-0.646 0.001-1.51-0.053c0.018-0.814 0.034-2.084 0.052-3.282 1.509 0 2.357 0.036 2.569 0.036 1.035 0 1.509-0.29 1.509-1.138-0.015-0.406-0.11-0.786-0.271-1.129-0.673 0.188-1.453 0.286-2.257 0.286-0.181 0-0.362-0.005-0.541-0.015-0.357 0.001-0.686 0.001-0.976-0.017l0.052-3.404c0.864-0.027 1.408-0.044 1.6-0.044 0.12-0.009 0.26-0.014 0.402-0.014 0.752 0 1.469 0.147 2.125 0.414 0.215-0.446 0.376-0.961 0.403-1.511 0-0.787-0.416-1.075-1.39-1.075s-2.281 0.192-3.911 0.192c-0.416 0-1.195-0.018-2.373-0.053v0.036zM98.292 0.008c-0.153-0.005-0.333-0.008-0.514-0.008-8.837 0-16 7.163-16 16s7.163 16 16 16c8.834 0 15.995-7.159 16-15.991 0.001-0.076 0.002-0.164 0.002-0.253 0-8.606-6.903-15.6-15.475-15.747zM101.67 8.008l1.324-2.352c0.076-0.143 0.224-0.239 0.394-0.239 0.083 0 0.16 0.023 0.227 0.062 0.135 0.084 0.224 0.234 0.224 0.404 0 0.086-0.023 0.166-0.062 0.235l-1.323 2.35c-0.076 0.143-0.225 0.239-0.395 0.239-0.083 0-0.161-0.023-0.227-0.062l0.002 0.001c-0.133-0.086-0.22-0.233-0.22-0.401 0-0.087 0.024-0.169 0.065-0.24zM97.812 4.478v0c-0-0.002-0-0.003-0-0.005 0-0.252 0.202-0.456 0.453-0.46h0c0.251 0.004 0.453 0.209 0.453 0.46 0 0.003-0 0.005-0 0.008v2.718c0 0.002 0 0.003 0 0.005 0 0.252-0.202 0.456-0.453 0.46h-0c-0.25-0.005-0.452-0.209-0.452-0.46 0-0.003 0-0.005 0-0.008zM92.904 5.478c0.065-0.040 0.144-0.063 0.228-0.063 0.168 0 0.314 0.093 0.389 0.23l1.326 2.363c0.037 0.066 0.059 0.145 0.059 0.229 0 0.17-0.089 0.32-0.224 0.404-0.067 0.041-0.146 0.064-0.23 0.064-0.168 0-0.314-0.093-0.389-0.23l-1.319-2.36c-0.039-0.067-0.062-0.148-0.062-0.235 0-0.172 0.091-0.322 0.227-0.406zM88.968 9.484c0.078-0.133 0.221-0.222 0.385-0.222 0.088 0 0.17 0.026 0.239 0.070l2.284 1.361h0.011c0.133 0.086 0.22 0.233 0.22 0.4 0 0.088-0.024 0.171-0.066 0.242-0.077 0.134-0.221 0.224-0.386 0.224-0.086 0-0.167-0.025-0.235-0.067l-2.295-1.361c-0.133-0.086-0.219-0.233-0.219-0.401 0-0.092 0.026-0.177 0.071-0.25zM87.224 15.029c-0-0.002-0-0.005-0-0.007 0-0.251 0.201-0.455 0.451-0.459h2.955c0.258 0 0.467 0.209 0.467 0.467s-0.209 0.467-0.467 0.467h-2.948c-0.25-0.004-0.452-0.208-0.452-0.459 0-0.004 0-0.009 0-0.013zM91.894 19.349l-2.286 1.364c-0.065 0.039-0.143 0.062-0.227 0.062-0.167 0-0.313-0.092-0.389-0.229-0.040-0.070-0.063-0.15-0.063-0.237 0-0.17 0.089-0.319 0.223-0.403l2.288-1.365c0.065-0.039 0.143-0.062 0.227-0.062 0.167 0 0.313 0.092 0.389 0.229 0.041 0.070 0.064 0.152 0.064 0.239 0 0.167-0.087 0.315-0.218 0.399zM95.412 22.942h-0.014c-0.254-0.004-0.459-0.211-0.459-0.466 0-0.257 0.209-0.466 0.466-0.466 0.002 0 0.005 0 0.007 0h2.489v-4.754c-0.001-0.011-0.001-0.025-0.001-0.038s0.001-0.027 0.002-0.040l-0-0.295c0-0.008 0-0.017 0-0.027 0-0.273-0.073-0.529-0.2-0.75-0.225-0.306-0.591-0.508-1.004-0.508-0.051 0-0.102 0.003-0.151 0.009l-0.527-0.001c0.056 0.205 0.116 0.377 0.188 0.544 0.088 0.22 0.225 0.43 0.394 0.609 0.128 0.136 0.309 0.223 0.511 0.225h0.009c0.254 0.004 0.459 0.211 0.459 0.466 0 0.257-0.209 0.466-0.466 0.466-0.002 0-0.005-0-0.007-0-0.45-0.001-0.855-0.189-1.144-0.49-0.255-0.265-0.46-0.578-0.602-0.925-0.165-0.389-0.289-0.819-0.359-1.267l-0.073-0.564h1.62c0.037-0.002 0.081-0.004 0.125-0.004 0.673 0 1.276 0.303 1.68 0.779 0.047-0.052 0.090-0.101 0.136-0.148 0.399-0.386 0.944-0.624 1.544-0.624 0.044 0 0.088 0.001 0.131 0.004l1.614-0-0.069 0.533c-0.074 0.479-0.198 0.909-0.369 1.314-0.134 0.33-0.339 0.643-0.594 0.909-0.287 0.301-0.693 0.489-1.142 0.49h-0.013c-0.255-0.004-0.46-0.211-0.46-0.467 0-0.258 0.209-0.467 0.467-0.467 0.002 0 0.005 0 0.007 0 0.201-0.003 0.382-0.089 0.509-0.225 0.169-0.178 0.306-0.389 0.399-0.622 0.066-0.153 0.127-0.325 0.176-0.502l-0.527-0.029c-0.033-0.003-0.072-0.005-0.111-0.005-0.353 0-0.674 0.133-0.918 0.351-0.198 0.234-0.32 0.541-0.32 0.877 0 0.017 0 0.034 0.001 0.051-0 0.012-0 0.026-0 0.038v5.092h2.293c0.194 0.001 0.359 0.125 0.422 0.297 0.020 0.052 0.031 0.109 0.031 0.169 0 0.195-0.119 0.363-0.288 0.434l-5.678 2.238c-0.048 0.019-0.103 0.030-0.161 0.030-0.194 0-0.359-0.123-0.423-0.295l-0.001-0.003c-0.019-0.049-0.030-0.106-0.030-0.166 0-0.195 0.118-0.362 0.287-0.434l3.381-1.334h-3.237zM97.105 26.943c0.283 0.083 0.608 0.131 0.945 0.131 0.22 0 0.435-0.020 0.643-0.059 0.808-0.165 1.541-0.491 2.177-0.944 0.052-0.036 0.138-0.064 0.231-0.064 0.159 0 0.298 0.084 0.376 0.209 0.047 0.074 0.074 0.162 0.074 0.256 0 0.162-0.080 0.304-0.203 0.39-0.729 0.518-1.593 0.896-2.528 1.075-0.265 0.045-0.523 0.067-0.786 0.067-0.006 0-0.013 0-0.021 0-0.432 0-0.849-0.065-1.241-0.186-0.639-0.193-1.211-0.547-1.667-1.015-0.073-0.083-0.117-0.192-0.117-0.311 0-0.197 0.12-0.365 0.291-0.437l5.66-2.225c0.048-0.019 0.103-0.030 0.161-0.030 0.195 0 0.361 0.124 0.423 0.297l0.001 0.003c0.019 0.049 0.030 0.106 0.030 0.165 0 0.196-0.12 0.364-0.29 0.435l-4.908 1.927c0.215 0.128 0.463 0.236 0.725 0.312zM104.196 14.942c0 0.005 0 0.010 0 0.016 0 1.633-0.629 3.12-1.659 4.23-0.428 0.433-0.765 0.963-0.976 1.554-0.009 0.28-0.212 0.483-0.463 0.483s-0.453-0.203-0.453-0.453c0.004-0.287 0.081-0.555 0.212-0.789 0.295-0.531 0.63-0.998 1.011-1.421l0.010-0.011c0.874-0.938 1.41-2.201 1.41-3.588 0-0.007 0-0.015-0-0.022v0.001c0.002-0.055 0.003-0.119 0.003-0.184 0-2.769-2.245-5.013-5.013-5.013-1.417 0-2.697 0.588-3.609 1.534-0.922 0.954-1.49 2.253-1.49 3.684 0 1.394 0.538 2.663 1.418 3.609l0.013 0.015c0.64 0.553 1.083 1.32 1.217 2.188 0.003 0.271-0.2 0.474-0.451 0.474s-0.453-0.203-0.453-0.453c-0.22-0.62-0.557-1.15-0.989-1.586-1.027-1.11-1.657-2.601-1.657-4.239 0-1.686 0.668-3.217 1.753-4.342 1.068-1.102 2.563-1.787 4.218-1.788 0.008-0 0.017-0 0.025-0 0.855 0 1.668 0.179 2.405 0.5l-0.039-0.015c0.751 0.327 1.39 0.778 1.919 1.334 1.014 1.076 1.636 2.528 1.636 4.124 0 0.056-0.001 0.112-0.002 0.167zM104.626 10.675l2.29-1.367h0.011c0.064-0.037 0.14-0.059 0.222-0.059 0.17 0 0.317 0.095 0.392 0.235 0.037 0.068 0.059 0.146 0.059 0.229 0 0.174-0.094 0.326-0.233 0.409l-2.29 1.368c-0.064 0.039-0.142 0.062-0.225 0.062-0.001 0-0.002 0-0.002 0h0c-0.168-0-0.315-0.093-0.392-0.231-0.040-0.070-0.063-0.151-0.063-0.237 0-0.173 0.093-0.324 0.231-0.407zM107.556 20.536c-0.077 0.139-0.223 0.231-0.39 0.231-0.085 0-0.164-0.024-0.231-0.065l-2.291-1.35c-0.137-0.085-0.227-0.234-0.227-0.405 0-0.085 0.022-0.165 0.061-0.234 0.075-0.14 0.222-0.236 0.392-0.236 0.082 0 0.159 0.022 0.225 0.061l2.291 1.35c0.141 0.084 0.233 0.236 0.233 0.409 0 0.088-0.024 0.17-0.065 0.241zM108.902 15.493h-2.956c-0.258 0-0.467-0.209-0.467-0.467s0.209-0.467 0.467-0.467h2.955c0.246 0.016 0.439 0.219 0.439 0.467s-0.193 0.451-0.437 0.467z"></path>
</svg>
