<?xml version="1.0" encoding="utf-8"?>
<!-- Generated by IcoMoon.io -->
<!DOCTYPE svg PUBLIC "-//W3C//DTD SVG 1.1//EN" "http://www.w3.org/Graphics/SVG/1.1/DTD/svg11.dtd">
<svg version="1.1" xmlns="http://www.w3.org/2000/svg" xmlns:xlink="http://www.w3.org/1999/xlink" width="107" height="32" viewBox="0 0 107 32">
<path fill="#fff" d="M58.144 20.136h-2.264c-0.097 0.021-0.209 0.032-0.323 0.032-0.902 0-1.633-0.731-1.633-1.633 0-0.025 0.001-0.050 0.002-0.075-0.001-0.023-0.002-0.055-0.002-0.087 0-0.42 0.124-0.811 0.337-1.139-0.005 0.156 0.258 0.353 0.855 0.323h0.1c-0.050 0 1.223 0 1.223 0h1.777c0.984 0 1.464-0.19 1.523-1.878 0 0 0 0 0-0.009 0 0.044 0 0.091 0 0.139 0 0.116 0 0.251 0 0.188s0-0.128 0-0.188c0.001-0.021 0.002-0.045 0.002-0.069s-0.001-0.049-0.002-0.073c-0.053-1.614-0.533-1.969-1.523-1.987-0.13-0.026-0.28-0.041-0.433-0.041-0.38 0-0.738 0.092-1.053 0.255-0.378 0.296-0.627 0.766-0.627 1.293 0 0.048 0.002 0.096 0.006 0.143-1.836-0.225-1.863-2.849-0.493-3.697 0.591-0.281 1.285-0.445 2.017-0.445 0.16 0 0.319 0.008 0.475 0.023l0.057-0.002c0.128-0.015 0.276-0.024 0.427-0.024 1.965 0 3.583 1.49 3.785 3.402l0.001 2.048c-0.225 1.985-1.895 3.513-3.921 3.513-0.11 0-0.218-0.004-0.326-0.013zM50.68 12.494c0-0.043 0 0.801 0 1.207 0 0.016 0 5.964 0 6.101 0 6.042-6.184 5.541-6.184 1.802 0.323 0.327 3.304 1.955 3.304-2.259v-6.042c-0.022-0.106-0.035-0.227-0.035-0.352 0-0.994 0.806-1.8 1.8-1.8 0.025 0 0.050 0.001 0.076 0.002 0.026-0.001 0.060-0.002 0.094-0.002 0.463 0 0.894 0.137 1.254 0.374-0.158-0.007-0.336 0.32-0.309 0.979zM49.207 10.031c-0.006 0-0.013 0-0.020 0-0.798 0-1.445-0.647-1.445-1.445 0-0.014 0-0.029 0.001-0.043-0-0.005-0-0.014-0-0.023 0-0.403 0.171-0.767 0.444-1.023 0.269-0.26 0.635-0.42 1.038-0.42 0.003 0 0.007 0 0.010 0 0.005-0 0.012-0 0.019-0 0.392 0 0.746 0.16 1 0.419 0.264 0.26 0.427 0.621 0.427 1.019 0 0.010-0 0.021-0 0.031s0.001 0.023 0.001 0.036c0 0.405-0.171 0.77-0.444 1.028-0.262 0.263-0.622 0.426-1.020 0.429zM42.971 8.37c0-0.057 0 1.422 0 1.422v8.187c0.023 0.107 0.035 0.229 0.035 0.355 0 0.994-0.806 1.8-1.8 1.8-0.026 0-0.051-0.001-0.076-0.002-0.026 0.001-0.060 0.002-0.094 0.002-0.463 0-0.894-0.137-1.254-0.374 0.17 0.005 0.348-0.322 0.314-0.981 0 0.057 0-1.422 0-1.422v0c0-0.208 0-0.409 0-0.533v-7.647c-0.022-0.106-0.035-0.227-0.035-0.352 0-0.994 0.806-1.8 1.8-1.8 0.025 0 0.050 0.001 0.076 0.002 0.026-0.002 0.062-0.002 0.097-0.002 0.462 0 0.892 0.137 1.252 0.372-0.163-0.004-0.339 0.322-0.306 0.981zM36.801 12.564c0-0.057 0 1.422 0 1.422v1.232c0.002 0.056 0.003 0.122 0.003 0.188 0 1.299-0.45 2.494-1.202 3.436-0.799 0.805-1.92 1.31-3.158 1.31-0.103 0-0.206-0.003-0.307-0.010l-3.35 0.001c-2.26 0-2.289-1.215-3.064-1.955-0.889 0.741-0.899 1.955-3.053 1.955h-0.551c-2.209 0-2.17-1.214-3.003-1.955-0.837 0.739-0.809 1.955-2.993 1.955h-2.133c-0.726 2.483-2.983 4.265-5.656 4.265-0.163 0-0.324-0.007-0.484-0.020l-1.394 0.001c-0.022 0-0.048 0-0.074 0-1.782 0-3.386-0.766-4.5-1.986-1.146-1.177-1.851-2.78-1.851-4.548 0-0.020 0-0.041 0-0.061l-0-1.353c-0.022-0.106-0.035-0.227-0.035-0.352 0-0.994 0.806-1.8 1.8-1.8 0.025 0 0.050 0.001 0.076 0.002 0.026-0.002 0.062-0.002 0.097-0.002 0.462 0 0.892 0.137 1.252 0.372-0.171-0.005-0.348 0.322-0.314 0.979 0-0.048 0 0.967 0 1.306 0 0.721 0 0.46 0 0.848-0.006 0.082-0.010 0.177-0.010 0.273 0 2.061 1.671 3.732 3.732 3.732 0.047 0 0.093-0.001 0.139-0.003l1.033 0c0.058 0.003 0.127 0.005 0.195 0.005 1.938 0 3.51-1.571 3.51-3.51 0-0.175-0.013-0.347-0.038-0.515l0.002-4.411c-0.022-0.106-0.035-0.227-0.035-0.352 0-0.994 0.806-1.8 1.8-1.8 0.025 0 0.050 0.001 0.076 0.002 0.017-0.001 0.040-0.001 0.064-0.001 0.493 0 0.954 0.136 1.348 0.372-0.174-0.007-0.414 0.32-0.38 0.978 0-0.057 0 1.422 0 1.422v0 3.57h1.777c1.048 0 1.896-0.922 1.896-2.831v-1.189h0.014v-0.178c-0.024-0.11-0.038-0.237-0.038-0.366 0-0.981 0.796-1.777 1.777-1.777 0.030 0 0.059 0.001 0.088 0.002 0.016-0.001 0.040-0.001 0.064-0.001 0.493 0 0.954 0.136 1.348 0.372-0.174-0.007-0.414 0.32-0.38 0.978 0-0.057 0 1.422 0 1.422v1.232c0 1.909 0.178 2.339 1.223 2.339h0.551c1.041 0 1.905-0.851 1.91-2.76v-0.817c0-0.178 0-0.38 0-0.624q0-0.080 0-0.156v-0.012c-0.010-0.069-0.015-0.148-0.015-0.228 0-0.965 0.782-1.747 1.747-1.747 0.032 0 0.064 0.001 0.096 0.003 0.016-0.001 0.040-0.001 0.063-0.001 0.493 0 0.954 0.136 1.348 0.372-0.174-0.007-0.414 0.32-0.38 0.978 0-0.057 0 1.422 0 1.422h-0.005v0.889c0 1.909 0.37 2.675 1.422 2.675h2.813c0.149 0.044 0.32 0.070 0.496 0.070 0.996 0 1.804-0.808 1.804-1.804 0-0.127-0.013-0.251-0.038-0.371s0.002-1.682 0.002-1.655v-0.427c-0.022-0.106-0.035-0.227-0.035-0.352 0-0.994 0.806-1.8 1.8-1.8 0.025 0 0.050 0.001 0.076 0.002 0.027-0.002 0.062-0.002 0.097-0.002 0.462 0 0.892 0.137 1.251 0.372-0.176-0.002-0.352 0.332-0.318 0.983zM24.566 13.985h0.014c-0.004 1.914-0.023-0.005-0.023-0.005zM35.354 10.046c-0.008 0-0.017 0-0.026 0-0.387 0-0.737-0.16-0.986-0.418-0.258-0.263-0.417-0.623-0.417-1.020 0-0.016 0-0.032 0.001-0.049-0-0.005-0-0.013-0-0.021 0-0.4 0.169-0.761 0.44-1.014 0.259-0.264 0.618-0.427 1.016-0.427 0.002 0 0.005 0 0.007 0 0.004-0 0.009-0 0.014-0 0.387 0 0.735 0.164 0.98 0.426 0.258 0.27 0.416 0.635 0.416 1.037 0 0.416-0.169 0.792-0.442 1.064-0.255 0.257-0.608 0.416-0.998 0.416-0.001 0-0.003 0-0.004 0zM65.451 22.647c-0.001-0.018-0.001-0.039-0.001-0.060 0-0.447 0.165-0.856 0.438-1.169 0.279-0.326 0.693-0.532 1.156-0.532 0.019 0 0.038 0 0.057 0.001l0.006-0c0 0 0.001 0 0.001 0 0.311 0 0.604 0.074 0.863 0.206 0.305 0.136 0.522 0.447 0.522 0.809 0 0.007 0.001 0.016 0.001 0.024 0 0.153-0.058 0.292-0.152 0.397-0.112 0.109-0.259 0.184-0.422 0.209l-0.18 0.043-0.114 0.020-0.020-0.116-0.044-0.194c-0.014-0.115-0.081-0.213-0.176-0.267-0.068-0.031-0.146-0.049-0.229-0.049-0.007 0-0.014 0-0.021 0l-0.038-0q-0.355 0-0.355 0.681c0 0.441 0.101 0.686 0.334 0.686h0.734c0 0 0.001 0 0.001 0 0.073 0 0.139-0.028 0.189-0.073l0.149-0.154 0.085-0.087 0.084 0.087 0.142 0.144c0.087 0.090 0.16 0.194 0.214 0.309 0.033 0.069 0.050 0.141 0.050 0.218s-0.017 0.149-0.049 0.214c-0.117 0.236-0.359 0.397-0.638 0.397-0.036 0-0.071-0.003-0.106-0.008l-1.89 0c-0.006-0-0.013-0.001-0.020-0.001-0.072 0-0.139 0.021-0.195 0.058-0.094 0.057-0.16 0.153-0.176 0.266l-0.038 0.194-0.020 0.116-0.123-0.020-0.19-0.037c-0.16-0.028-0.3-0.104-0.407-0.211-0.094-0.105-0.152-0.244-0.152-0.396 0-0.009 0-0.018 0.001-0.026 0.002-0.355 0.212-0.661 0.515-0.802 0.098-0.054 0.207-0.102 0.321-0.142-0.064-0.213-0.11-0.455-0.11-0.707 0-0.012 0-0.025 0-0.037zM68.55 8.384c0-0.057 0 1.422 0 1.422v8.187c0.022 0.107 0.035 0.229 0.035 0.355 0 0.994-0.806 1.8-1.8 1.8-0.026 0-0.051-0.001-0.076-0.002-0.026 0.001-0.060 0.002-0.094 0.002-0.463 0-0.894-0.137-1.254-0.374 0.17 0.005 0.348-0.322 0.314-0.981 0 0.057 0-1.422 0-1.422v0c0-0.208 0-0.409 0-0.533v-7.661c-0.022-0.106-0.035-0.227-0.035-0.352 0-0.994 0.806-1.8 1.8-1.8 0.025 0 0.050 0.001 0.076 0.002 0.027-0.002 0.062-0.002 0.097-0.002 0.462 0 0.892 0.137 1.251 0.372-0.17-0.004-0.348 0.322-0.314 0.981zM90.785 0.007c-0.036-0-0.078-0-0.121-0-8.833 0-15.994 7.161-15.994 15.994s7.161 15.994 15.994 15.994c8.833 0 15.993-7.16 15.994-15.993 0-0.018 0-0.039 0-0.061 0-8.778-7.099-15.899-15.87-15.933zM94.255 8.004l1.358-2.351c0.080-0.144 0.231-0.239 0.405-0.239 0.085 0 0.164 0.023 0.232 0.062 0.141 0.081 0.236 0.233 0.236 0.407 0 0.084-0.022 0.164-0.061 0.232l-1.356 2.349c-0.081 0.143-0.232 0.238-0.405 0.238-0.084 0-0.163-0.022-0.231-0.062l0.002 0.001c-0.143-0.082-0.239-0.233-0.239-0.408 0-0.085 0.023-0.164 0.062-0.233zM90.308 4.471v0c0-0.257 0.208-0.466 0.466-0.466v0c0.256 0.001 0.464 0.209 0.464 0.466 0 0.001 0 0.001 0 0.002v2.717c0 0 0 0 0 0 0 0.257-0.207 0.465-0.464 0.466h-0c-0.256-0.001-0.464-0.209-0.464-0.466 0-0.001 0-0.001 0-0.002zM85.278 5.471c0.067-0.040 0.147-0.063 0.234-0.063 0.171 0 0.32 0.092 0.4 0.23l1.352 2.359c0.037 0.065 0.059 0.144 0.059 0.227 0 0.173-0.094 0.325-0.234 0.406-0.069 0.041-0.15 0.065-0.236 0.065-0.171 0-0.32-0.092-0.4-0.23l-1.352-2.359c-0.038-0.066-0.060-0.146-0.060-0.23 0-0.171 0.092-0.321 0.229-0.403zM81.245 9.475c0.083-0.134 0.228-0.221 0.394-0.221 0.090 0 0.173 0.025 0.244 0.069l2.34 1.36h0.011c0.135 0.084 0.224 0.232 0.224 0.4 0 0.088-0.025 0.171-0.067 0.242-0.080 0.134-0.227 0.224-0.395 0.224-0.088 0-0.17-0.025-0.24-0.068l-2.367-1.357c-0.132-0.084-0.219-0.23-0.219-0.397 0-0.094 0.028-0.182 0.076-0.256zM79.451 15.018c0-0.001 0-0.001 0-0.002 0-0.256 0.207-0.463 0.462-0.464h3.021c0.257 0 0.466 0.208 0.466 0.466s-0.208 0.466-0.466 0.466h-3.021c-0.255-0.001-0.462-0.208-0.462-0.464 0-0.001 0-0.001 0-0.002zM84.238 19.336l-2.344 1.363c-0.067 0.040-0.147 0.063-0.233 0.063-0.17 0-0.319-0.092-0.399-0.23-0.041-0.069-0.064-0.15-0.064-0.237 0-0.171 0.091-0.32 0.228-0.402l2.346-1.364c0.067-0.040 0.147-0.063 0.233-0.063 0.17 0 0.319 0.092 0.399 0.23 0.040 0.069 0.064 0.15 0.064 0.236 0 0.171-0.092 0.321-0.229 0.403zM87.835 22.931h-0.014c-0.254-0.004-0.459-0.211-0.459-0.466 0-0.257 0.208-0.466 0.466-0.466 0.002 0 0.005 0 0.007 0h2.55v-4.752c-0.001-0.011-0.002-0.025-0.002-0.038s0.001-0.027 0.002-0.040l-0-0.297c0-0.007 0-0.015 0-0.023 0-0.274-0.075-0.531-0.205-0.751-0.232-0.308-0.605-0.509-1.024-0.509-0.054 0-0.108 0.003-0.161 0.010l-0.545-0.001c0.055 0.205 0.116 0.377 0.188 0.543 0.091 0.22 0.231 0.431 0.405 0.609 0.132 0.138 0.318 0.224 0.524 0.225h0.014c0.255 0.004 0.459 0.211 0.459 0.466 0 0.258-0.209 0.467-0.467 0.467-0.002 0-0.005-0-0.007-0 0 0 0 0 0 0-0.459 0-0.874-0.188-1.173-0.49-0.26-0.263-0.471-0.576-0.617-0.923-0.169-0.388-0.296-0.818-0.367-1.266l-0.075-0.564h1.66c0.039-0.002 0.085-0.004 0.131-0.004 0.685 0 1.3 0.302 1.718 0.78 0.048-0.055 0.093-0.107 0.141-0.156 0.412-0.386 0.968-0.624 1.579-0.624 0.046 0 0.093 0.001 0.138 0.004l1.653-0-0.071 0.533c-0.073 0.478-0.197 0.908-0.369 1.313-0.139 0.331-0.349 0.645-0.609 0.909-0.298 0.302-0.712 0.49-1.171 0.49h-0.020c-0.254-0.004-0.459-0.211-0.459-0.466 0-0.257 0.208-0.466 0.466-0.466 0.002 0 0.005 0 0.007 0 0.205-0.001 0.39-0.087 0.522-0.225 0.173-0.178 0.313-0.388 0.41-0.622 0.066-0.153 0.127-0.325 0.176-0.502l-0.537-0.028c-0.034-0.003-0.074-0.005-0.115-0.005-0.359 0-0.688 0.132-0.939 0.351-0.203 0.233-0.328 0.541-0.328 0.879 0 0.016 0 0.032 0.001 0.048-0 0.012-0 0.024-0 0.039v5.090h2.349c0 0 0 0 0 0 0.257 0 0.466 0.208 0.466 0.466 0 0.198-0.123 0.367-0.297 0.434l-5.823 2.233c-0.049 0.020-0.107 0.031-0.167 0.031-0.197 0-0.365-0.123-0.433-0.296l-0.001-0.003c-0.019-0.049-0.030-0.106-0.030-0.166 0-0.197 0.122-0.365 0.294-0.434l3.474-1.334h-3.318zM89.569 26.931c0.29 0.082 0.622 0.13 0.966 0.13 0.224 0 0.443-0.020 0.656-0.059 0.826-0.164 1.578-0.49 2.233-0.944 0.052-0.035 0.14-0.064 0.235-0.064 0.162 0 0.304 0.084 0.386 0.21 0.048 0.074 0.076 0.161 0.076 0.256 0 0.163-0.083 0.306-0.208 0.39-0.749 0.518-1.634 0.896-2.59 1.075-0.272 0.045-0.537 0.067-0.806 0.067-0.007 0-0.015 0-0.022 0-0.442 0-0.869-0.065-1.272-0.186-0.652-0.191-1.238-0.545-1.708-1.016-0.074-0.082-0.12-0.192-0.12-0.313 0-0.197 0.122-0.366 0.295-0.434l5.82-2.224c0.049-0.019 0.106-0.030 0.165-0.030 0.197 0 0.366 0.123 0.433 0.297l0.001 0.003c0.019 0.049 0.030 0.106 0.030 0.165 0 0.197-0.122 0.366-0.295 0.435l-5.023 1.922c0.216 0.128 0.465 0.237 0.728 0.316zM96.837 14.94c0 0.002 0 0.003 0 0.005 0 1.644-0.647 3.136-1.699 4.237-0.439 0.432-0.785 0.963-1.001 1.555-0.025 0.274-0.227 0.466-0.474 0.466s-0.449-0.192-0.465-0.435c0.005-0.289 0.083-0.557 0.217-0.789 0.302-0.531 0.645-0.997 1.035-1.419l0.011-0.013c0.894-0.932 1.445-2.2 1.445-3.596 0-0.003 0-0.007 0-0.010v-0.007c0.001-0.045 0.002-0.098 0.002-0.152 0-1.355-0.538-2.584-1.413-3.486-0.952-0.952-2.269-1.542-3.724-1.542-1.442 0-2.749 0.58-3.7 1.519-0.942 0.941-1.525 2.243-1.525 3.681 0 1.4 0.553 2.671 1.452 3.607l0.014 0.016c0.652 0.548 1.103 1.315 1.241 2.187-0.013 0.265-0.215 0.457-0.462 0.457s-0.449-0.192-0.465-0.435c-0.227-0.622-0.572-1.152-1.012-1.586-1.055-1.099-1.704-2.594-1.704-4.241 0-3.383 2.742-6.126 6.125-6.127 0.008-0 0.017-0 0.027-0 0.875 0 1.708 0.178 2.465 0.501l-0.041-0.016c2.161 0.914 3.65 3.017 3.65 5.467 0 0.053-0.001 0.105-0.002 0.158zM97.278 10.669l2.346-1.367h0.012c0.065-0.038 0.144-0.060 0.227-0.060 0.173 0 0.323 0.095 0.403 0.235 0.039 0.068 0.061 0.147 0.061 0.231 0 0.174-0.094 0.325-0.235 0.407l-2.348 1.368c-0.066 0.039-0.146 0.062-0.231 0.062-0.001 0-0.001 0-0.002 0h0c-0.001 0-0.001 0-0.002 0-0.171 0-0.32-0.093-0.4-0.231-0.042-0.070-0.066-0.152-0.066-0.24 0-0.173 0.094-0.324 0.233-0.405zM100.28 20.523c-0.082 0.139-0.23 0.23-0.4 0.23-0.086 0-0.166-0.023-0.235-0.064l-2.349-1.351c-0.143-0.082-0.237-0.234-0.237-0.408 0-0.084 0.022-0.163 0.061-0.231 0.079-0.141 0.229-0.236 0.402-0.236 0.084 0 0.163 0.023 0.231 0.062l2.349 1.349c0.146 0.081 0.243 0.235 0.243 0.411 0 0.088-0.024 0.171-0.067 0.241zM101.659 15.482h-3.021c-0.257 0-0.466-0.208-0.466-0.466s0.208-0.466 0.466-0.466h3.021c0.258 0 0.466 0.209 0.466 0.466s-0.209 0.466-0.466 0.466z"></path>
</svg>
