<svg xmlns="http://www.w3.org/2000/svg" width="90" height="125" viewBox="0 0 90 125">
  <defs>
    <style>
      .cls-1 {
        fill: #fff;
        fill-rule: evenodd;
      }
    </style>
  </defs>
  <path id="logo" class="cls-1" d="M76,118.643H73.03c-1.959.038-2.544-1.1-2.549-2.178a2.71,2.71,0,0,1,.433-1.591c0,0.192.344,0.449,1.125,0.409h0.129l-0.007-.008c-0.066-.007,1.6,0,1.6,0h2.32c1.288-.008,1.914-0.248,1.991-2.447,0-.005,0-0.008,0-0.011,0,0.058,0,.118,0,0.179,0,0.152,0,.327,0,0.246s0-.166,0-0.246a1.479,1.479,0,0,0,0-.179c-0.071-2.106-.7-2.571-1.992-2.594a3.014,3.014,0,0,0-1.926.27,2.132,2.132,0,0,0-.83,1.871c-2.4-.285-2.435-3.7-0.644-4.809a6.289,6.289,0,0,1,3.231-.55h0.1c4.015,0,5.509,2.827,5.509,4.421v2.646C81.52,115.514,80.062,118.625,76,118.643ZM66.24,108.7c0.005-.056,0,1.045,0,1.572,0,0.021.006,7.769,0.006,7.948,0,7.877-8.087,7.219-8.087,2.348,0.424,0.425,4.32,2.543,4.32-2.943v-7.08h0v-0.8c-0.042-2.153,1.209-2.8,2.4-2.8a3.008,3.008,0,0,1,1.756.475C66.428,107.416,66.2,107.842,66.24,108.7Zm-1.937-3.06a1.965,1.965,0,0,1-1.449-.6,2.069,2.069,0,0,1-.594-1.522,2.02,2.02,0,0,1,.619-1.5,2.056,2.056,0,0,1,1.461-.6,1.933,1.933,0,0,1,1.424.6,2.064,2.064,0,0,1,.594,1.5,2.039,2.039,0,0,1-.619,1.51A2.012,2.012,0,0,1,64.3,105.639Zm-8.143-2.312c0.007-.075,0,1.844,0,1.844v10.666c0.042,2.155-1.209,2.8-2.4,2.8A3,3,0,0,1,52,118.166c0.212,0,.444-0.426.4-1.285-0.007.074,0-1.847,0-1.847h0c0-.271,0-0.532,0-0.7v-9.164H52.4v-0.8c-0.042-2.152,1.209-2.8,2.4-2.8a3,3,0,0,1,1.756.476C56.348,102.044,56.116,102.469,56.16,103.327Zm-8.08,5.452c0.007-.074,0,1.845,0,1.845v1.6a7.167,7.167,0,0,1-1.556,4.706A5.839,5.839,0,0,1,42,118.643H37.6c-2.955,0-2.992-1.584-4.007-2.545-1.151.965-1.177,2.545-3.993,2.545H28.88c-2.889,0-2.838-1.581-3.927-2.545-1.094.963-1.057,2.545-3.913,2.545h-2.8c-1.012,3.65-4.145,5.533-8,5.533H8.4a7.978,7.978,0,0,1-5.985-2.584A8.465,8.465,0,0,1,0,115.6v-1.764c-0.042-2.152,1.209-2.8,2.4-2.8a3,3,0,0,1,1.756.476c-0.212,0-.444.425-0.4,1.283,0.006-.062,0,1.259,0,1.7,0.008,0.938,0,.6,0,1.1a4.878,4.878,0,0,0,5.04,5.213h1.36c3.139-.2,4.747-1.766,4.8-5.213v-5.773c-0.042-2.152,1.209-2.8,2.4-2.8a3.45,3.45,0,0,1,1.836.475c-0.212,0-.524.426-0.48,1.283,0.007-.074,0,1.845,0,1.845h0v4.651h2.32c1.37,0,2.48-1.2,2.48-3.689v-1.54h0.018v-0.234c-0.042-2.153,1.191-2.784,2.385-2.79a3.45,3.45,0,0,1,1.836.475c-0.212,0-.524.426-0.48,1.283,0.007-.074,0,1.845,0,1.845v1.6c0,2.487.23,3.048,1.6,3.048H29.6c1.362,0,2.49-1.109,2.5-3.595v-1.056h0c0-.228,0-0.5,0-0.813q0-.105,0-0.2v-0.016h0c0.044-1.976,1.232-2.564,2.385-2.57a3.45,3.45,0,0,1,1.836.475c-0.212,0-.524.426-0.48,1.283,0.007-.074,0,1.845,0,1.845H35.827v1.165c0,2.487.483,3.486,1.853,3.486h3.68c1.189,0,2.96.148,2.96-2.727,0,0-.007-2.206,0-2.171v-0.555c-0.042-2.152,1.209-2.8,2.4-2.8a3.008,3.008,0,0,1,1.756.475C48.268,107.5,48.036,107.922,48.08,108.779Zm-16,1.845H32.1C32.1,113.125,32.08,110.624,32.08,110.624Zm14.281-4.875a1.965,1.965,0,0,1-1.449-.6,2.085,2.085,0,0,1-.594-1.534,1.991,1.991,0,0,1,.631-1.485,2.039,2.039,0,0,1,1.461-.611,1.918,1.918,0,0,1,1.424.611,2.151,2.151,0,0,1-.037,3.007A2.012,2.012,0,0,1,46.361,105.749Zm39.185,16.157a2.3,2.3,0,0,1,.57-1.6,1.993,1.993,0,0,1,1.585-.686h0.012a2.491,2.491,0,0,1,1.114.262,1.159,1.159,0,0,1,.706,1.06,0.771,0.771,0,0,1-.2.549,1.013,1.013,0,0,1-.557.275l-0.248.049-0.148.025-0.025-.149-0.05-.25a0.474,0.474,0,0,0-.235-0.349,0.734,0.734,0,0,0-.322-0.062H87.7q-0.458,0-.458.885c0,0.574.132,0.894,0.437,0.894h0.96a0.372,0.372,0,0,0,.249-0.095l0.186-.2,0.111-.112,0.112,0.112,0.186,0.187a1.485,1.485,0,0,1,.285.412,0.64,0.64,0,0,1,0,.549,0.927,0.927,0,0,1-.969.511H86.32a0.467,0.467,0,0,0-.278.075,0.483,0.483,0,0,0-.223.349l-0.05.25L85.745,125l-0.161-.025-0.248-.049a0.992,0.992,0,0,1-.532-0.275,0.771,0.771,0,0,1-.2-0.549,1.154,1.154,0,0,1,.681-1.048,2.935,2.935,0,0,1,.433-0.187A2.639,2.639,0,0,1,85.547,121.906ZM89.6,103.327c0.007-.075,0,1.844,0,1.844v10.666c0.042,2.155-1.209,2.8-2.4,2.8a3,3,0,0,1-1.756-.476c0.212,0,.444-0.426.4-1.285-0.007.074,0-1.847,0-1.847h0c0-.271,0-0.532,0-0.7v-9.164H85.84v-0.8c-0.042-2.152,1.209-2.8,2.4-2.8a3,3,0,0,1,1.756.476C89.788,102.044,89.556,102.469,89.6,103.327ZM45,0A44.91,44.91,0,1,0,90,44.911,44.955,44.955,0,0,0,45,0ZM54.84,22.446l3.848-6.6a1.315,1.315,0,0,1,2.278,1.312l-3.848,6.6a1.319,1.319,0,0,1-1.8.476v0l-0.008,0A1.3,1.3,0,0,1,54.84,22.446ZM43.629,12.534h0a1.312,1.312,0,0,1,1.318-1.307h0a1.313,1.313,0,0,1,1.315,1.311L46.252,20.17a1.313,1.313,0,0,1-1.318,1.307h0v0a1.312,1.312,0,0,1-1.313-1.31ZM29.366,15.345a1.317,1.317,0,0,1,1.8.473l3.829,6.615a1.315,1.315,0,0,1-2.282,1.306l-3.829-6.615A1.311,1.311,0,0,1,29.366,15.345ZM17.931,26.59a1.314,1.314,0,0,1,1.806-.431l6.642,3.824L26.41,30a1.311,1.311,0,1,1-1.352,2.246l-6.643-3.825-0.053-.031A1.309,1.309,0,0,1,17.931,26.59ZM12.864,42.152a1.31,1.31,0,0,1,1.311-1.309h8.586a1.309,1.309,0,1,1,0,2.618H14.176A1.31,1.31,0,0,1,12.864,42.152Zm13.57,12.127-6.645,3.828a1.311,1.311,0,1,1-1.32-2.264l6.645-3.829h0A1.311,1.311,0,1,1,26.435,54.279Zm10.2,10.1H36.592a1.309,1.309,0,1,1,.041-2.617h7.232l0.017-13.342a1.32,1.32,0,0,1-.023-0.213V47.363a4.118,4.118,0,0,0-.57-2.158c-0.614-.957-1.711-1.423-3.352-1.423H38.376a11.121,11.121,0,0,0,.522,1.451,5.534,5.534,0,0,0,1.173,1.78,2.076,2.076,0,0,0,1.486.635H41.6a1.309,1.309,0,1,1-.041,2.617,4.693,4.693,0,0,1-3.325-1.379,8.185,8.185,0,0,1-1.768-2.647,14.991,14.991,0,0,1-1.033-3.59l-0.2-1.485h4.707a6.506,6.506,0,0,1,5.251,2.183,5.284,5.284,0,0,1,.394-0.442,6.585,6.585,0,0,1,4.852-1.741h4.705l-0.2,1.485A15.007,15.007,0,0,1,53.9,46.237a8.189,8.189,0,0,1-1.763,2.648,4.685,4.685,0,0,1-3.322,1.379H48.777a1.309,1.309,0,1,1,.041-2.617,2.068,2.068,0,0,0,1.482-.634,5.536,5.536,0,0,0,1.171-1.779,11.146,11.146,0,0,0,.522-1.452H50.436a4.085,4.085,0,0,0-2.983.968,3.74,3.74,0,0,0-.932,2.6c0,0.04,0,.077,0,0.115L46.5,61.759h6.662a1.308,1.308,0,0,1,.471,2.531L37.147,70.566a1.319,1.319,0,0,1-1.7-.754v0a1.306,1.306,0,0,1,.757-1.687l9.837-3.745H36.633ZM41.551,75.61a10.473,10.473,0,0,0,4.553.211,16.913,16.913,0,0,0,6.34-2.626,1.311,1.311,0,1,1,1.436,2.194,19.425,19.425,0,0,1-7.459,3.033,13.953,13.953,0,0,1-2.164.172,12.635,12.635,0,0,1-3.582-.51A11.429,11.429,0,0,1,35.74,75.21a1.3,1.3,0,0,1,.507-2.1l16.445-6.235a1.319,1.319,0,0,1,1.7.756l0,0a1.307,1.307,0,0,1-.762,1.685L39.4,74.715A9.623,9.623,0,0,0,41.551,75.61ZM62.156,41.938a17.133,17.133,0,0,1-4.811,11.905c-1.083,1.237-2.871,3.436-2.871,4.454a1.318,1.318,0,0,1-2.633,0,4.548,4.548,0,0,1,.606-2.188A21.351,21.351,0,0,1,55.38,52.1l0.044-.048a14.522,14.522,0,0,0,4.1-10.125V41.9a13.983,13.983,0,0,0-4-10.21,15.035,15.035,0,0,0-21.051-.068,14.515,14.515,0,0,0-.212,20.436L34.308,52.1c3.114,3.55,3.543,5.076,3.543,6.2a1.318,1.318,0,0,1-2.633,0c0-1.017-1.79-3.215-2.874-4.453a17.119,17.119,0,0,1,.273-24.083,17.386,17.386,0,0,1,12.261-5.027A18,18,0,0,1,51.825,26.1h0a16.879,16.879,0,0,1,5.583,3.755A16.571,16.571,0,0,1,62.156,41.938Zm1.25-11.992,6.651-3.838,0.033-.019a1.311,1.311,0,1,1,1.288,2.283l-6.651,3.836a1.316,1.316,0,0,1-.659.177v0A1.308,1.308,0,0,1,63.406,29.946Zm8.51,27.673a1.314,1.314,0,0,1-1.8.47l-6.665-3.795a1.311,1.311,0,1,1,1.309-2.271l6.665,3.795,0.016,0.009A1.309,1.309,0,0,1,71.916,57.619Zm3.91-14.158H67.239a1.309,1.309,0,1,1,0-2.618h8.589l0,0A1.31,1.31,0,1,1,75.826,43.461Z"/>
</svg>
