<?xml version="1.0" encoding="utf-8"?>
<!-- Generated by IcoMoon.io -->
<!DOCTYPE svg PUBLIC "-//W3C//DTD SVG 1.1//EN" "http://www.w3.org/Graphics/SVG/1.1/DTD/svg11.dtd">
<svg version="1.1" xmlns="http://www.w3.org/2000/svg" xmlns:xlink="http://www.w3.org/1999/xlink" width="32" height="32" viewBox="0 0 32 32">
<path fill="#5a4180" d="M16.011 0c-0.003 0-0.007 0-0.011 0-8.837 0-16 7.163-16 16s7.163 16 16 16c8.837 0 16-7.163 16-16 0-0.002 0-0.004 0-0.005 0-8.832-7.158-15.992-15.989-15.995zM19.506 7.996l1.367-2.353c0.081-0.145 0.234-0.242 0.41-0.242 0.258 0 0.468 0.209 0.468 0.468 0 0.090-0.025 0.173-0.069 0.244l-1.366 2.35c-0.083 0.14-0.233 0.233-0.405 0.233-0.087 0-0.168-0.024-0.237-0.064l0.002 0.001h-0.003c-0.139-0.082-0.231-0.231-0.231-0.402 0-0.086 0.024-0.167 0.065-0.237zM15.523 4.465v0c0.001-0.257 0.21-0.466 0.467-0.466 0.001 0 0.001 0 0.002 0h-0c0.258 0 0.467 0.209 0.467 0.467l-0.003 2.718c-0.001 0.257-0.21 0.466-0.467 0.466-0.001 0-0.001 0-0.002 0h0c-0.258-0-0.466-0.209-0.466-0.467zM10.456 5.465c0.067-0.040 0.149-0.064 0.235-0.064 0.171 0 0.321 0.092 0.402 0.23l1.362 2.359c0.036 0.065 0.058 0.143 0.058 0.225 0 0.258-0.209 0.467-0.467 0.467-0.17 0-0.318-0.090-0.4-0.226l-1.362-2.358c-0.038-0.066-0.060-0.145-0.060-0.229 0-0.171 0.092-0.321 0.23-0.403zM6.392 9.472c0.083-0.134 0.23-0.222 0.398-0.222 0.090 0 0.175 0.026 0.246 0.070l2.37 1.368c0.137 0.083 0.226 0.231 0.226 0.4 0 0.258-0.209 0.467-0.467 0.467-0.089 0-0.172-0.025-0.242-0.068l-2.377-1.373c-0.134-0.084-0.221-0.23-0.221-0.397 0-0.090 0.025-0.174 0.069-0.245zM4.592 15.015c0-0.257 0.209-0.466 0.466-0.466h3.050c0.005-0 0.010-0 0.015-0 0.258 0 0.466 0.209 0.466 0.466s-0.209 0.466-0.466 0.466c-0.005 0-0.011-0-0.016-0l-3.049 0c-0 0-0 0-0 0-0.257 0-0.465-0.208-0.466-0.465zM9.414 19.336l-2.364 1.364c-0.066 0.038-0.146 0.061-0.231 0.061-0.258 0-0.466-0.209-0.466-0.466 0-0.17 0.091-0.318 0.226-0.4l2.364-1.365c0.067-0.040 0.149-0.064 0.236-0.064 0.258 0 0.468 0.209 0.468 0.468 0 0.172-0.092 0.321-0.23 0.403zM13.038 22.933h-0.015c-0.255-0.004-0.46-0.212-0.46-0.467 0-0.258 0.209-0.467 0.467-0.467 0.003 0 0.005 0 0.008 0h2.57l0.006-4.75c-0.004-0.022-0.007-0.049-0.008-0.075v-0.301c0-0.008 0-0.018 0-0.028 0-0.273-0.074-0.529-0.204-0.748-0.235-0.307-0.609-0.508-1.030-0.508-0.056 0-0.112 0.004-0.166 0.011l-0.549-0.001c0.058 0.205 0.121 0.376 0.196 0.542 0.092 0.221 0.233 0.432 0.407 0.609 0.133 0.138 0.32 0.225 0.528 0.226h0.013c0.249 0.011 0.446 0.216 0.446 0.466 0 0.255-0.205 0.463-0.46 0.466-0 0-0 0-0 0-0.462 0-0.88-0.188-1.181-0.491-0.262-0.263-0.474-0.576-0.621-0.924-0.17-0.389-0.298-0.819-0.37-1.268l-0.075-0.562h1.672c0.040-0.002 0.087-0.004 0.134-0.004 0.688 0 1.307 0.301 1.73 0.779 0.048-0.055 0.094-0.106 0.142-0.155 0.416-0.387 0.975-0.624 1.589-0.624 0.047 0 0.095 0.001 0.141 0.004l1.666-0-0.072 0.529c-0.076 0.479-0.204 0.909-0.38 1.313-0.14 0.332-0.352 0.646-0.613 0.909-0.301 0.303-0.719 0.491-1.18 0.491-0 0-0 0-0 0h-0.017c-0.249-0.011-0.446-0.216-0.446-0.466 0-0.255 0.205-0.463 0.46-0.466 0.207-0.001 0.394-0.087 0.527-0.226 0.174-0.178 0.314-0.388 0.411-0.621 0.069-0.154 0.132-0.325 0.183-0.502l-0.544-0.028c-0.035-0.003-0.075-0.005-0.116-0.005-0.361 0-0.692 0.132-0.946 0.351-0.204 0.232-0.33 0.541-0.33 0.879 0 0.016 0 0.032 0.001 0.048-0 0.012-0 0.025-0 0.039l-0.008 5.090h2.367c0.256 0.001 0.464 0.209 0.464 0.466 0 0.196-0.121 0.364-0.293 0.433l-5.861 2.241c-0.050 0.020-0.107 0.031-0.167 0.031-0.198 0-0.367-0.123-0.436-0.296l-0.001-0.003c-0.019-0.049-0.030-0.106-0.030-0.165 0-0.197 0.123-0.366 0.296-0.434l3.498-1.337h-3.342zM14.786 26.933c0.293 0.083 0.629 0.131 0.977 0.131 0.227 0 0.448-0.020 0.664-0.059 0.832-0.163 1.589-0.49 2.251-0.945 0.052-0.034 0.14-0.063 0.235-0.063 0.258 0 0.467 0.209 0.467 0.467 0 0.163-0.083 0.306-0.21 0.39-0.755 0.519-1.647 0.897-2.609 1.075-0.273 0.046-0.54 0.070-0.811 0.072-0.004 0-0.007 0-0.010 0-0.45 0-0.885-0.067-1.296-0.19-0.657-0.19-1.247-0.545-1.722-1.016-0.075-0.082-0.122-0.193-0.122-0.314 0-0.198 0.124-0.368 0.299-0.435l5.847-2.223c0.050-0.020 0.107-0.031 0.167-0.031 0.198 0 0.368 0.123 0.436 0.297l0.001 0.003c0.019 0.049 0.030 0.105 0.030 0.164 0 0.198-0.124 0.367-0.298 0.435l-5.060 1.927c0.219 0.127 0.473 0.236 0.74 0.313zM22.107 14.941c0 0.001 0 0.001 0 0.002 0 1.647-0.652 3.143-1.711 4.242-0.383 0.439-1.019 1.222-1.019 1.585-0.014 0.247-0.218 0.442-0.468 0.442s-0.453-0.195-0.468-0.441c0.005-0.289 0.085-0.557 0.22-0.788 0.305-0.534 0.65-1.003 1.044-1.426l0.012-0.012c0.901-0.931 1.456-2.201 1.456-3.601 0-0.002 0-0.004 0-0.007v-0.011c0.001-0.044 0.002-0.097 0.002-0.149 0-1.358-0.543-2.589-1.423-3.489-0.962-0.953-2.288-1.543-3.752-1.543-1.451 0-2.767 0.58-3.729 1.52-0.946 0.938-1.531 2.239-1.531 3.677 0 1.401 0.556 2.671 1.459 3.604l0.015 0.016c1.107 1.265 1.259 1.808 1.259 2.207-0.008 0.252-0.215 0.453-0.468 0.453s-0.459-0.201-0.468-0.452c-0-0.363-0.636-1.146-1.021-1.587-1.054-1.099-1.703-2.594-1.703-4.241 0-3.386 2.745-6.13 6.13-6.13 0.009 0 0.019 0 0.028 0 0.006-0 0.015-0 0.024-0 0.881 0 1.721 0.179 2.485 0.502l-0.042-0.016c0.773 0.325 1.433 0.777 1.983 1.337 1.044 1.066 1.688 2.526 1.688 4.136 0 0.060-0.001 0.119-0.003 0.178zM22.55 10.668l2.375-1.376c0.066-0.038 0.145-0.060 0.229-0.060 0.258 0 0.467 0.209 0.467 0.467 0 0.174-0.095 0.325-0.236 0.406l-2.365 1.369c-0.067 0.040-0.148 0.063-0.234 0.063-0 0-0 0-0 0v0c-0 0-0.001 0-0.002 0-0.257 0-0.466-0.209-0.466-0.466 0-0.171 0.092-0.321 0.23-0.402zM25.574 20.527c-0.082 0.139-0.232 0.231-0.403 0.231-0.087 0-0.168-0.024-0.237-0.065l-2.366-1.349c-0.141-0.082-0.234-0.232-0.234-0.404 0-0.258 0.209-0.467 0.467-0.467 0.086 0 0.166 0.023 0.235 0.063l2.372 1.352c0.139 0.082 0.232 0.232 0.232 0.403 0 0.087-0.024 0.168-0.065 0.237zM26.963 15.483h-3.050c-0.251-0.008-0.451-0.214-0.451-0.466s0.2-0.458 0.45-0.466l3.051-0c0.251 0.008 0.451 0.214 0.451 0.466s-0.2 0.458-0.45 0.466z"></path>
</svg>
