<?xml version="1.0" standalone="no"?>
<!DOCTYPE svg PUBLIC "-//W3C//DTD SVG 20010904//EN"
 "http://www.w3.org/TR/2001/REC-SVG-20010904/DTD/svg10.dtd">
<svg version="1.0" xmlns="http://www.w3.org/2000/svg"
 width="118.000000pt" height="128.000000pt" viewBox="0 0 118.000000 128.000000"
 preserveAspectRatio="xMidYMid meet">
<metadata>
Created by potrace 1.10, written by Peter Selinger 2001-2011
</metadata>
<g transform="translate(0.000000,128.000000) scale(0.100000,-0.100000)"
fill="#000000" stroke="none">
<path d="M338 1211 c-131 -26 -241 -50 -244 -54 -14 -14 7 -35 43 -42 21 -3
59 -11 86 -17 l47 -10 -3 -133 c-2 -90 -8 -139 -16 -149 -19 -22 -5 -117 22
-158 12 -18 28 -55 35 -83 7 -27 26 -79 42 -114 17 -35 30 -73 30 -86 0 -37
-31 -61 -93 -74 -73 -16 -210 -84 -237 -118 -37 -47 -22 -104 32 -122 96 -30
245 -40 548 -37 391 5 497 22 521 83 13 35 4 56 -37 92 -49 44 -124 79 -212
102 -112 28 -123 51 -72 161 16 36 35 87 41 114 7 26 22 63 35 81 28 42 40
123 23 155 -8 14 -14 74 -16 155 l-4 132 58 11 c32 6 62 11 66 11 5 -1 10 -49
10 -109 2 -100 3 -107 22 -107 19 0 20 8 23 132 2 119 1 132 -15 137 -21 6
-494 97 -496 95 -1 -1 -109 -22 -239 -48z m462 -40 c133 -26 142 -29 105 -36
-22 -4 -103 -20 -179 -34 l-139 -27 -136 27 c-75 14 -154 30 -176 34 -36 7
-24 11 125 41 184 37 187 37 400 -5z m229 -31 c-8 -4 -32 -11 -53 -15 -34 -5
-38 -4 -28 7 8 10 8 18 1 25 -7 7 5 7 41 0 32 -6 47 -13 39 -17z m-802 0 c2
-23 -2 -24 -48 -8 -34 12 -34 12 -9 19 43 12 56 10 57 -11z m78 -40 c3 -5 2
-10 -4 -10 -5 0 -13 5 -16 10 -3 6 -2 10 4 10 5 0 13 -4 16 -10z m585 0 c0 -5
-5 -10 -11 -10 -5 0 -7 5 -4 10 3 6 8 10 11 10 2 0 4 -4 4 -10z m-412 -50
l112 -21 113 21 c61 12 122 24 135 27 22 5 23 4 20 -53 l-3 -58 -50 -13 c-86
-24 -297 -27 -395 -6 l-85 18 -3 59 c-3 57 -2 58 20 53 13 -3 74 -15 136 -27z
m-73 -148 c128 -27 367 -15 459 23 15 7 17 4 13 -11 -3 -10 -8 -33 -12 -51 -4
-19 -19 -41 -38 -56 -32 -24 -33 -24 -56 -6 -30 25 -82 24 -114 -1 -16 -13
-40 -20 -67 -20 -27 0 -51 7 -67 20 -33 25 -83 26 -115 0 l-25 -19 -37 33
c-20 19 -36 42 -36 52 0 11 -3 30 -7 43 -5 21 -4 23 13 16 10 -4 51 -14 89
-23z m-71 -136 c19 -16 30 -35 31 -57 4 -45 53 -89 100 -89 44 0 96 44 98 83
2 22 7 27 27 27 20 0 25 -5 27 -27 2 -39 54 -83 98 -83 47 0 96 44 100 89 1
22 12 41 31 57 39 31 44 30 44 -11 0 -40 -24 -105 -38 -105 -5 0 -12 -19 -16
-42 -12 -77 -65 -185 -104 -216 -57 -45 -83 -55 -144 -58 -54 -3 -60 -1 -116
41 -53 40 -64 55 -91 119 -17 40 -33 92 -37 114 -4 23 -11 42 -16 42 -14 0
-38 65 -38 105 0 41 5 42 44 11z m164 -2 c32 -22 27 -73 -9 -93 -24 -13 -29
-13 -53 2 -34 22 -36 69 -4 91 28 20 38 20 66 0z m250 0 c32 -22 27 -73 -9
-93 -24 -13 -29 -13 -53 2 -34 22 -36 69 -4 91 28 20 38 20 66 0z m-103 -14
c-3 -5 -11 -10 -16 -10 -6 0 -7 5 -4 10 3 6 11 10 16 10 6 0 7 -4 4 -10z m132
-371 c2 -16 -1 -19 -9 -11 -5 5 -7 15 -4 21 10 15 12 14 13 -10z m-303 -61
c59 -41 137 -46 208 -11 26 12 49 27 53 33 11 19 23 10 30 -22 6 -26 3 -35
-16 -50 -78 -63 -180 -75 -266 -33 -66 33 -76 47 -68 85 4 16 8 30 11 30 2 0
24 -14 48 -32z m-60 -92 c58 -44 107 -60 181 -60 68 1 150 31 186 70 28 30 49
30 146 -1 91 -29 183 -86 183 -115 0 -25 -34 -34 -209 -56 -247 -30 -774 -5
-819 40 -7 7 -10 19 -7 27 14 36 209 128 272 129 13 0 43 -15 67 -34z"/>

</g>
</svg>
