<?xml version="1.0" encoding="utf-8"?>
<!-- Generator: Adobe Illustrator 19.2.0, SVG Export Plug-In . SVG Version: 6.00 Build 0)  -->
<svg version="1.1" id="Layer_1" xmlns="http://www.w3.org/2000/svg" xmlns:xlink="http://www.w3.org/1999/xlink" x="0px" y="0px"
	 viewBox="0 0 221 72" style="enable-background:new 0 0 221 72;" xml:space="preserve">
<style type="text/css">
	.st0{fill:#FFD21F;}
	.st1{fill:#403408;}
	.st2{fill:#FF5A58;}
	.st3{fill:#FF758A;}
</style>
<path id="Ellipse_1_copy_2" class="st0" d="M185,0c19.9,0,36,16.1,36,36s-16.1,36-36,36s-36-16.1-36-36S165.1,0,185,0z M112,0
	c12.9,0,24.9,6.9,31.3,18.1c-6.6,11.8-6.1,25.4,0,35.6c-9.8,17.3-31.8,23.3-49.1,13.5S70.9,35.5,80.7,18.2C87.1,7,99.1,0,112,0z
	 M36,0c12.9,0,24.9,6.9,31.3,18.1c-6.6,11.8-6.1,25.4,0,35.6c-9.8,17.3-31.8,23.3-49.1,13.5S-5.1,35.5,4.7,18.2C11.1,7,23.1,0,36,0z
	"/>
<g>
	<path class="st1" d="M52.5,26.9c-1.4,0-2.6,1.1-2.6,2.6v6.1c0,1.4,1.2,2.6,2.6,2.6c1.4,0,2.6-1.1,2.6-2.6v-6.1
		C55,28,53.9,26.9,52.5,26.9z"/>
	<path class="st1" d="M55.6,19.5C54.4,20,53,20,51.8,19.7c-0.9-0.4-1.5-1.1-1.8-2c-0.2-0.5-0.8-0.8-1.3-0.6c0,0,0,0,0,0
		c-0.5,0.2-0.8,0.8-0.6,1.3c0.5,1.4,1.6,2.5,2.9,3.1c0.7,0.3,1.5,0.5,2.4,0.4h0c1,0,2-0.2,3-0.6c0,0,0,0,0,0
		c0.5-0.2,0.8-0.8,0.6-1.3C56.7,19.6,56.1,19.3,55.6,19.5z"/>
	<path class="st1" d="M132.4,46H91.6c0,0-0.1,0-0.1,0c-0.8,0-1.5,0.7-1.5,1.6c0,0.8,0.7,1.5,1.6,1.5h40.9c0,0,0.1,0,0.1,0
		c0.8,0,1.5-0.7,1.5-1.6C134,46.6,133.3,45.9,132.4,46z"/>
	<path class="st1" d="M173.7,34.3C173.7,34.3,173.7,34.3,173.7,34.3c1,0,1.9-0.8,1.9-1.8c0-2.1-0.7-4.1-2.1-5.7
		c-2.6-2.4-6.7-2.5-9.3,0c-1.4,1.6-2.1,3.6-2.1,5.7c0,1,0.8,1.8,1.8,1.8h0c1,0,1.8-0.9,1.8-1.9c0-1.1,0.4-2.2,1.1-3c1.2-1,2.9-1,4,0
		c0.7,0.9,1,1.9,1,3C171.8,33.5,172.6,34.3,173.7,34.3z"/>
	<path class="st1" d="M199.4,40.7c-0.1,0-0.1,0-0.2-0.1v0l-27.3,0.1c-0.6,0.2-1,0.8-0.8,1.4c0,0.1,0,0.1,0.1,0.2
		c1,3.6,2.8,6.8,5.4,9.6c2.2-2.5,5.5-3.9,8.8-3.8c3.9,0,7.2,1.6,9,4c2.6-2.8,4.6-6.1,5.6-9.8C200.2,41.6,199.9,40.9,199.4,40.7z"/>
	<path class="st1" d="M205.9,26.8c-2.6-2.4-6.7-2.5-9.3,0c-1.4,1.6-2.1,3.6-2.1,5.7c0,1,0.8,1.8,1.8,1.8h0c1,0,1.8-0.9,1.8-1.9
		c0-1.1,0.4-2.2,1.1-3c1.2-1,2.9-1,4,0c0.7,0.9,1,1.9,1,3c0,1,0.8,1.9,1.8,1.9s1.9-0.8,1.9-1.8c0,0,0,0,0,0
		C208,30.4,207.3,28.4,205.9,26.8z"/>
	<path class="st1" d="M128.2,37.9c1.4,0,2.6-1.1,2.6-2.5v-8.8c0-1.4-1.2-2.5-2.6-2.5c-1.4,0-2.6,1.1-2.6,2.5v8.8
		C125.7,36.7,126.8,37.9,128.2,37.9z"/>
	<path class="st1" d="M95.7,37.9c1.4,0,2.6-1.1,2.6-2.5v-8.8c0-1.4-1.2-2.5-2.6-2.5c-1.4,0-2.6,1.1-2.6,2.5v8.8
		C93.2,36.7,94.3,37.9,95.7,37.9z"/>
	<path class="st1" d="M50.4,54.9C49.3,51.2,45.5,42,36.3,42s-13,9.3-14.2,13l0,0c-0.1,0.4,0.2,0.9,0.6,1c0.3,0.1,0.6,0,0.8-0.2
		c3.5-3.1,8-4.9,12.7-5c4.7,0.2,9.2,1.9,12.7,5c0.3,0.3,0.8,0.3,1.2,0C50.4,55.5,50.4,55.2,50.4,54.9L50.4,54.9z"/>
	<path class="st1" d="M21,21.5c1.4-0.6,2.4-1.7,2.9-3.1c0,0,0,0,0,0c0.2-0.5-0.1-1.1-0.6-1.3c-0.5-0.2-1.1,0-1.3,0.6
		c-0.3,0.9-1,1.6-1.8,2C19,20,17.7,20,16.4,19.5c-0.5-0.2-1.1,0-1.3,0.6c0,0,0,0,0,0c-0.2,0.5,0,1.1,0.6,1.3c1,0.4,2,0.5,3,0.6
		C19.5,22,20.3,21.8,21,21.5z"/>
	<path class="st1" d="M22.6,29.4c0-1.4-1.2-2.6-2.6-2.6c-1.4,0-2.6,1.1-2.6,2.6v6.1c0,1.4,1.2,2.6,2.6,2.6c1.4,0,2.6-1.1,2.6-2.6
		V29.4z"/>
</g>
<path class="st2" d="M185.3,48.1c-3.8,0-7.1,1.5-8.8,3.7c4.9,5,12.8,5,17.8,0.2c0,0,0,0,0,0C192.6,49.6,189.2,48.1,185.3,48.1z"/>
<path class="st3" d="M161.2,37c-2.8,0.1-4.9,2.4-4.8,5.2s2.4,4.9,5.2,4.8c2.7-0.1,4.8-2.3,4.8-5C166.3,39.2,164,37,161.2,37
	 M210.8,37c-2.8,0.1-4.9,2.4-4.8,5.2s2.4,4.9,5.2,4.8c2.7-0.1,4.8-2.3,4.8-5C216,39.2,213.6,37,210.8,37"/>
</svg>
