<?xml version="1.0" encoding="utf-8"?>
<!-- Generator: Adobe Illustrator 19.2.0, SVG Export Plug-In . SVG Version: 6.00 Build 0)  -->
<svg version="1.1" id="Layer_1" xmlns="http://www.w3.org/2000/svg" xmlns:xlink="http://www.w3.org/1999/xlink" x="0px" y="0px"
	 viewBox="0 0 64 64" style="enable-background:new 0 0 64 64;" xml:space="preserve">
<style type="text/css">
	.st0{fill:#FFD21F;}
	.st1{fill:#403408;}
</style>
<g id="XMLID_99_">
	<g id="XMLID_350_">
		<circle id="XMLID_351_" class="st0" cx="32" cy="32" r="31.5"/>
	</g>
	<g id="XMLID_75_">
		<path id="XMLID_77_" class="st1" d="M17.7,19.8L17.7,19.8c1.3,0,2.3,1,2.3,2.3V30c0,1.3-1,2.3-2.3,2.3l0,0c-1.3,0-2.3-1-2.3-2.3
			v-7.9C15.4,20.8,16.4,19.8,17.7,19.8z"/>
		<path id="XMLID_76_" class="st1" d="M46.3,19.8L46.3,19.8c1.3,0,2.3,1,2.3,2.3V30c0,1.3-1,2.3-2.3,2.3l0,0c-1.3,0-2.3-1-2.3-2.3
			v-7.9C44.1,20.8,45.1,19.8,46.3,19.8z"/>
	</g>
	<g id="XMLID_80_">
		<path class="st1" d="M50,42.4H14c-0.8,0-1.4-0.6-1.4-1.4c0-0.8,0.6-1.4,1.4-1.4h36c0.8,0,1.4,0.6,1.4,1.4
			C51.4,41.8,50.8,42.4,50,42.4z"/>
	</g>
</g>
</svg>
