<?xml version="1.0" encoding="utf-8"?>
<!-- Generator: Adobe Illustrator 19.2.0, SVG Export Plug-In . SVG Version: 6.00 Build 0)  -->
<svg version="1.1" id="Layer_1" xmlns="http://www.w3.org/2000/svg" xmlns:xlink="http://www.w3.org/1999/xlink" x="0px" y="0px"
	 viewBox="0 0 64 64" style="enable-background:new 0 0 64 64;" xml:space="preserve">
<style type="text/css">
	.st0{fill:#FFD21F;}
	.st1{fill:#403408;}
	.st2{clip-path:url(#XMLID_6_);fill:#FF5A58;}
	.st3{opacity:0.6;fill:#FF758A;}
</style>
<g id="XMLID_83_">
	<g id="XMLID_375_">
		<circle id="XMLID_376_" class="st0" cx="32" cy="32" r="31.5"/>
	</g>
	<g id="XMLID_5_">
		<path id="XMLID_290_" class="st1" d="M20.6,36.7c-0.5,0-0.8,0.7-0.7,1.3c1,3.3,4.3,11.5,12.4,11.5c8.2,0,11.5-8.3,12.5-11.6
			c0.2-0.6-0.2-1.3-0.7-1.3L20.6,36.7z"/>
		<g id="XMLID_1_">
			<defs>
				<path id="XMLID_3_" d="M20.6,36.7c-0.5,0-0.8,0.7-0.7,1.3c1,3.3,4.3,11.5,12.4,11.5c8.2,0,11.5-8.3,12.5-11.6
					c0.2-0.6-0.2-1.3-0.7-1.3L20.6,36.7z"/>
			</defs>
			<clipPath id="XMLID_6_">
				<use xlink:href="#XMLID_3_"  style="overflow:visible;"/>
			</clipPath>
			<ellipse id="XMLID_4_" class="st2" cx="32.3" cy="49.6" rx="8.9" ry="6.6"/>
		</g>
	</g>
	<g id="XMLID_63_">
		<g id="XMLID_65_">
			<path class="st1" d="M41.8,31c-0.8,0-1.4-0.6-1.4-1.4c0-0.3,0-3,1.8-4.8c1-1,2.3-1.5,3.9-1.5c1.6,0,2.9,0.5,3.9,1.5
				c1.8,1.8,1.8,4.4,1.7,4.7c0,0.8-0.6,1.4-1.4,1.3c-0.8,0-1.4-0.6-1.3-1.4c0-0.5-0.2-1.9-1-2.8c-0.5-0.5-1.1-0.7-1.9-0.7
				c-0.8,0-1.4,0.2-1.9,0.7c-0.8,0.8-1,2.3-1,2.8C43.2,30.3,42.6,31,41.8,31C41.8,31,41.8,31,41.8,31z"/>
		</g>
		<g id="XMLID_64_">
			<path class="st1" d="M13.7,31c-0.8,0-1.4-0.6-1.4-1.4c0-0.3,0-3,1.8-4.8c1-1,2.3-1.5,3.9-1.5c1.6,0,2.9,0.5,3.9,1.5
				c1.8,1.8,1.8,4.4,1.7,4.7c0,0.7-0.6,1.3-1.4,1.3c0,0,0,0,0,0c-0.8,0-1.4-0.6-1.3-1.4c0-0.5-0.2-1.9-1-2.8
				c-0.5-0.5-1.1-0.7-1.9-0.7c-0.8,0-1.4,0.2-1.9,0.7c-0.8,0.8-1,2.3-1,2.8C15,30.3,14.4,31,13.7,31C13.7,31,13.7,31,13.7,31z"/>
		</g>
	</g>
	<g id="XMLID_144_">
		<circle id="XMLID_146_" class="st3" cx="9.9" cy="36.7" r="4.6"/>
		<circle id="XMLID_145_" class="st3" cx="54.1" cy="36.7" r="4.6"/>
	</g>
</g>
</svg>
