<?xml version="1.0" encoding="utf-8"?>
<!-- Generator: Adobe Illustrator 19.2.0, SVG Export Plug-In . SVG Version: 6.00 Build 0)  -->
<svg version="1.1" id="Layer_1" xmlns="http://www.w3.org/2000/svg" xmlns:xlink="http://www.w3.org/1999/xlink" x="0px" y="0px"
	 viewBox="0 0 64 64" style="enable-background:new 0 0 64 64;" xml:space="preserve">
<style type="text/css">
	.st0{fill:#FFD21F;}
	.st1{fill:#403408;}
</style>
<g id="XMLID_97_">
	<g id="XMLID_360_">
		<circle id="XMLID_361_" class="st0" cx="32" cy="32" r="31.5"/>
	</g>
	<g id="XMLID_55_">
		<path id="XMLID_57_" class="st1" d="M17.4,33.7L17.4,33.7c-1.3,0-2.3-1-2.3-2.3v-5.6c0-1.3,1-2.3,2.3-2.3l0,0c1.3,0,2.3,1,2.3,2.3
			v5.6C19.8,32.7,18.7,33.7,17.4,33.7z"/>
		<path id="XMLID_56_" class="st1" d="M46.6,33.7L46.6,33.7c-1.3,0-2.3-1-2.3-2.3v-5.6c0-1.3,1-2.3,2.3-2.3l0,0c1.3,0,2.3,1,2.3,2.3
			v5.6C48.9,32.7,47.9,33.7,46.6,33.7z"/>
	</g>
	<g id="XMLID_53_">
		<g id="XMLID_59_">
			<path class="st1" d="M16.2,18.8c-1.4,0-2.5-0.5-2.6-0.5c-0.4-0.1-0.5-0.6-0.4-0.9c0.1-0.4,0.6-0.5,0.9-0.4c0,0,2,0.8,3.6,0.1
				c0.8-0.3,1.4-1,1.7-1.9c0.1-0.4,0.5-0.5,0.9-0.4s0.5,0.5,0.4,0.9c-0.5,1.3-1.4,2.2-2.5,2.7C17.5,18.7,16.8,18.8,16.2,18.8z"/>
		</g>
	</g>
	<g id="XMLID_58_">
		<g id="XMLID_60_">
			<path class="st1" d="M47.4,18.8c-0.6,0-1.4-0.1-2-0.4c-1.1-0.5-2-1.4-2.5-2.7c-0.1-0.4,0-0.8,0.4-0.9c0.4-0.1,0.8,0,0.9,0.4
				c0.4,1,1,1.6,1.7,1.9c1.6,0.7,3.5-0.1,3.6-0.1c0.4-0.1,0.8,0,0.9,0.4c0.1,0.4,0,0.8-0.4,0.9C49.9,18.4,48.8,18.8,47.4,18.8z"/>
		</g>
	</g>
	<g id="XMLID_48_">
		<g id="XMLID_49_">
			<g>
				<path id="XMLID_54_" class="st1" d="M43.4,49.7c0.5,0.5,1.5,0,1.3-0.7l0,0c-1-3.3-4.3-11.7-12.6-11.7s-11.7,8.5-12.7,11.8l0,0
					c-0.2,0.7,0.7,1.2,1.3,0.7c1.7-1.8,6.6-4.6,11.4-4.6C36.8,45.2,41.8,47.9,43.4,49.7z"/>
			</g>
		</g>
	</g>
</g>
</svg>
