<!-- Generated by IcoMoon.io -->
<svg version="1.1" xmlns="http://www.w3.org/2000/svg" width="34" height="32" viewBox="0 0 34 32">
<title>connect</title>
<path fill="#e44d60" d="M17.194 13.765c-0.001 0-0.002 0-0.002 0-1.901 0-3.441 1.541-3.441 3.441s1.541 3.441 3.441 3.441c1.901 0 3.441-1.541 3.441-3.441 0-0.001 0-0.002 0-0.003-0.006-1.897-1.542-3.433-3.438-3.439zM27.51 17.204c0-5.698-4.619-10.316-10.316-10.316s-10.316 4.619-10.316 10.316c0.030 3.794 2.072 7.104 5.11 8.919l1.767-2.896c-2.028-1.212-3.365-3.396-3.365-5.892 0-3.778 3.063-6.841 6.841-6.841s6.841 3.063 6.841 6.841c0 0.015-0 0.029-0 0.044 0.001 0.038 0.001 0.086 0.001 0.134 0 2.464-1.378 4.606-3.406 5.697l1.685 2.94c3.086-1.842 5.128-5.152 5.158-8.941zM17.194 0c-9.487 0.032-17.168 7.716-17.194 17.201-0 0.021-0 0.042-0 0.064 0 6.286 3.427 11.772 8.515 14.692l1.802-2.879c-4.128-2.423-6.856-6.84-6.856-11.893 0-7.591 6.154-13.744 13.744-13.744s13.744 6.153 13.744 13.744c0 0.007 0 0.014-0 0.021 0 0.013 0 0.030 0 0.047 0 5.040-2.74 9.439-6.812 11.79l1.654 2.958c5.175-3.015 8.597-8.538 8.597-14.86 0-9.466-7.674-17.141-17.141-17.141-0.019 0-0.038 0-0.056 0z"></path>
</svg>
