<!-- Generated by IcoMoon.io -->
<svg version="1.1" xmlns="http://www.w3.org/2000/svg" width="41" height="32" viewBox="0 0 41 32">
<title>envelope</title>
<path fill="#fff" d="M3.973 9.867q0.78 0.54 4.72 3.24t6.040 4.147c0.16 0.107 0.48 0.333 0.987 0.693s0.92 0.64 1.24 0.867 0.733 0.467 1.2 0.733c0.381 0.229 0.821 0.436 1.282 0.598 0.392 0.135 0.785 0.208 1.194 0.215l0.057 0c0.413-0.008 0.806-0.080 1.173-0.208 0.486-0.169 0.926-0.377 1.34-0.624 0.433-0.262 0.834-0.502 1.167-0.715s0.747-0.52 1.24-0.867 0.827-0.587 0.987-0.693q2.12-1.467 10.787-7.387c1.111-0.764 2.045-1.694 2.79-2.765 0.721-0.984 1.144-2.173 1.157-3.459 0-0.022 0.001-0.044 0.001-0.066 0-0.99-0.42-1.883-1.092-2.509-0.651-0.661-1.553-1.069-2.55-1.069-0.018 0-0.037 0-0.055 0l-33.944-0c-0.060-0.004-0.129-0.006-0.199-0.006-1.014 0-1.922 0.456-2.53 1.174-0.604 0.767-0.967 1.74-0.967 2.798 0 0.059 0.001 0.117 0.003 0.175 0.081 1.188 0.546 2.262 1.272 3.105 0.756 1.014 1.651 1.883 2.664 2.595zM39.027 12.293q-7.56 5.040-11.48 7.84c-0.88 0.64-1.6 1.133-2.147 1.493-0.622 0.399-1.337 0.767-2.088 1.064-0.83 0.365-1.698 0.569-2.611 0.59l-0.061 0c-0.921-0.021-1.789-0.225-2.576-0.577-0.801-0.315-1.521-0.682-2.199-1.109-0.478-0.328-1.198-0.821-2.078-1.461q-3.1-2.24-11.453-7.84c-0.882-0.581-1.648-1.232-2.326-1.965l-0.007 18.032c-0 0.017-0.001 0.038-0.001 0.059 0 0.989 0.414 1.882 1.079 2.513 0.648 0.66 1.548 1.069 2.544 1.069 0.025 0 0.050-0 0.075-0.001l33.943 0c0.019 0 0.040 0.001 0.062 0.001 0.998 0 1.901-0.408 2.551-1.067 0.667-0.633 1.081-1.526 1.081-2.515 0-0.021-0-0.041-0.001-0.062l0-18.037c-0.681 0.737-1.437 1.387-2.261 1.944z"></path>
</svg>
