<!-- Generated by IcoMoon.io -->
<svg version="1.1" xmlns="http://www.w3.org/2000/svg" width="15" height="32" viewBox="0 0 15 32">
<title>facebook</title>
<path fill="#fff" d="M9.93 10.484v-2.755c-0.001-0.035-0.001-0.076-0.001-0.117 0-0.298 0.021-0.591 0.063-0.877 0.043-0.22 0.135-0.446 0.263-0.645 0.147-0.221 0.378-0.385 0.649-0.447 0.334-0.083 0.71-0.129 1.097-0.129 0.044 0 0.088 0.001 0.131 0.002l2.751-0v-5.517h-4.408q-3.826 0-5.496 1.815t-1.669 5.351v3.32h-3.302v5.516h3.301v16.002h6.623v-16.002h4.408l0.583-5.516h-4.992z"></path>
</svg>
