<!-- Generated by IcoMoon.io -->
<svg version="1.1" xmlns="http://www.w3.org/2000/svg" width="33" height="32" viewBox="0 0 33 32">
<title>group</title>
<path fill="#e44d60" d="M30.021 19.479c-0.017-0.005-0.033-0.013-0.046-0.023 0.032-0.384 0.051-0.777 0.051-1.17 0-0.006 0-0.013 0-0.020 0-5.436-3.158-10.134-7.74-12.36-0.082-0.054-0.077-0.072-0.077-0.086 0-0.022 0-0.047 0-0.073 0-3.184-2.581-5.765-5.765-5.765s-5.765 2.581-5.765 5.765c0 0.026 0 0.051 0.001 0.076-0 0.010 0.005 0.028 0.005 0.046-4.663 2.261-7.822 6.96-7.822 12.396 0 0.007 0 0.014 0 0.021 0 0.392 0.018 0.785 0.050 1.169-0.013 0.009-0.028 0.017-0.044 0.022-1.737 1.038-2.881 2.907-2.881 5.043 0 1.070 0.287 2.072 0.788 2.935 0.993 1.721 2.852 2.881 4.981 2.884 0.001 0 0.002 0 0.002 0 1.059 0 2.051-0.29 2.9-0.796-0.012 0.005 0.006-0.004 0.020-0.013 2.161 1.544 4.856 2.469 7.767 2.469s5.606-0.925 7.808-2.496c-0.027 0.037-0.009 0.046 0.005 0.055 0.823 0.491 1.815 0.781 2.875 0.782 2.13-0.003 3.989-1.163 4.982-2.884 0.501-0.863 0.787-1.865 0.787-2.935 0-2.136-1.144-4.006-2.853-5.028zM16.439 3.195c0.001 0 0.001 0 0.002 0 1.516 0 2.745 1.229 2.745 2.745s-1.229 2.745-2.745 2.745c-1.516 0-2.745-1.229-2.745-2.745 0-0.001 0-0.002 0-0.002 0-1.515 1.228-2.743 2.743-2.743zM9.019 25.513c-0.374 1.372-1.606 2.366-3.071 2.373-0.008 0-0.017 0-0.026 0-1.185 0-2.222-0.636-2.787-1.585-0.262-0.475-0.411-1.023-0.411-1.606 0-1.156 0.587-2.175 1.479-2.776 0.503-0.278 1.088-0.437 1.71-0.437 0.009 0 0.018 0 0.027 0h-0.001c1.764 0.005 3.191 1.436 3.191 3.2 0 0.296-0.040 0.582-0.115 0.855zM22.395 27.584c-1.618 1.052-3.598 1.678-5.723 1.678s-4.105-0.626-5.765-1.703c0.641-0.867 0.998-1.965 0.998-3.147 0-1.041-0.277-2.017-0.762-2.858-0.954-1.671-2.751-2.8-4.812-2.806h-0.001c-0.133 0-0.261 0.009-0.393 0.018-0.005-0.142-0.009-0.279-0.009-0.421-0-0.008-0-0.017-0-0.027 0-4.136 2.292-7.736 5.676-9.6 0.96 1.87 2.863 3.159 5.067 3.159s4.107-1.289 4.996-3.154c3.454 1.859 5.747 5.459 5.747 9.595 0 0.009 0 0.019-0 0.028 0 0.14-0.005 0.277-0.009 0.419-0.133-0.009-0.261-0.018-0.393-0.018v0c-2.062 0.006-3.859 1.135-4.813 2.807-0.484 0.841-0.761 1.817-0.761 2.857 0 1.182 0.358 2.28 0.97 3.193zM29.362 26.057c-0.412 0.807-1.231 1.354-2.178 1.371-0.467-0.001-0.9-0.137-1.264-0.371-0.756-0.523-1.251-1.396-1.251-2.384 0-0.499 0.126-0.969 0.349-1.379 0.405-0.791 1.223-1.337 2.171-1.356l0.003-0c0.466 0.002 0.899 0.139 1.262 0.376 0.757 0.521 1.253 1.392 1.253 2.379 0 0.5-0.127 0.97-0.351 1.379z"></path>
</svg>
