<!-- Generated by IcoMoon.io -->
<svg version="1.1" xmlns="http://www.w3.org/2000/svg" width="32" height="32" viewBox="0 0 32 32">
<title>location</title>
<path fill="#593F7F" d="M16 0c8.837 0 16 7.163 16 16s-7.163 16-16 16c-8.837 0-16-7.163-16-16s7.163-16 16-16zM21.285 9.143c-0.002 0-0.004 0-0.006 0-1.456 0-2.637 1.181-2.637 2.637 0 0.4 0.089 0.779 0.249 1.119l2.394 4.684 2.401-4.7c0.153-0.324 0.242-0.703 0.242-1.103 0-1.456-1.181-2.637-2.637-2.637-0.002 0-0.005 0-0.007 0zM21.285 13.363c-0.873-0.002-1.579-0.71-1.579-1.583 0-0.874 0.709-1.583 1.583-1.583s1.583 0.709 1.583 1.583c-0.001 0.874-0.71 1.583-1.584 1.583-0 0-0.001 0-0.001 0zM22.076 18.356l0.962 1.92-2.439 1.216-0.818-4.082 0.137-0.137 0.015-0.014-0.505-0.99-0.258 0.258-3.172-2.11-3.171 2.11-2.115-2.11-3.17 6.33 4.229 2.11 4.229-2.11 4.229 2.11 4.229-2.11-1.783-3.559zM11.4 21.492l-2.438-1.216 2.042-4.078 1.215 1.212zM15.472 19.831l-2.957 1.475 0.764-3.811 0.137-0.091 2.057-1.368v3.794zM16.528 19.831v-3.794l2.194 1.46 0.764 3.811z"></path>
</svg>
