<!-- Generated by IcoMoon.io -->
<svg version="1.1" xmlns="http://www.w3.org/2000/svg" width="19" height="32" viewBox="0 0 19 32">
<title>mobile</title>
<path fill="#fff" d="M18.434 0.95c-0.57-0.586-1.366-0.95-2.247-0.95-0.008 0-0.016 0-0.023 0h-12.935c-0.007-0-0.014-0-0.022-0-0.881 0-1.677 0.364-2.246 0.95-0.593 0.563-0.961 1.355-0.961 2.233 0 0.006 0 0.012 0 0.018v25.599c-0 0.005-0 0.011-0 0.017 0 0.878 0.368 1.671 0.959 2.231 0.571 0.588 1.367 0.952 2.248 0.952 0.008 0 0.016-0 0.023-0h12.935c0.007 0 0.014 0 0.022 0 0.881 0 1.677-0.364 2.246-0.95 0.593-0.563 0.961-1.355 0.961-2.233 0-0.006-0-0.012-0-0.018v-25.599c0-0.005 0-0.011 0-0.017 0-0.878-0.368-1.671-0.959-2.231zM7.68 3.2h4.034c0.222 0 0.402 0.18 0.402 0.402s-0.18 0.402-0.402 0.402h-4.034c-0.222 0-0.402-0.18-0.402-0.402s0.18-0.402 0.402-0.402zM11.122 30.206c-0.364 0.365-0.869 0.592-1.425 0.592s-1.061-0.226-1.425-0.592c-0.365-0.359-0.592-0.859-0.592-1.411s0.226-1.052 0.591-1.411c0.365-0.366 0.869-0.592 1.426-0.592s1.061 0.226 1.425 0.592c0.365 0.359 0.592 0.859 0.592 1.411s-0.226 1.052-0.591 1.411zM16.97 24.795c0 0.005 0 0.011 0 0.017 0 0.216-0.093 0.411-0.242 0.545-0.138 0.15-0.334 0.243-0.553 0.243-0.004 0-0.007-0-0.011-0h-12.935c-0.003 0-0.007 0-0.010 0-0.218 0-0.415-0.093-0.552-0.242-0.15-0.136-0.243-0.33-0.243-0.546 0-0.006 0-0.012 0-0.018l-0-17.589c-0-0.005-0-0.011-0-0.017 0-0.216 0.093-0.411 0.242-0.545 0.143-0.149 0.342-0.241 0.563-0.243h12.936c0.003-0 0.007-0 0.010-0 0.218 0 0.415 0.093 0.552 0.242 0.15 0.136 0.243 0.33 0.243 0.546 0 0.006-0 0.012-0 0.018l0 17.589z"></path>
</svg>
