<!-- Generated by IcoMoon.io -->
<svg version="1.1" xmlns="http://www.w3.org/2000/svg" width="32" height="32" viewBox="0 0 32 32">
<title>student</title>
<path fill="#593F7F" d="M13.798 10.182c0.397 0.005 0.717 0.329 0.717 0.726 0 0.401-0.325 0.726-0.726 0.726-0.4 0-0.725-0.323-0.726-0.723 0.003-0.404 0.331-0.73 0.735-0.73 0 0 0.001 0 0.001 0zM18.202 10.182c0.397 0.005 0.717 0.329 0.717 0.726 0 0.401-0.325 0.726-0.726 0.726-0.4 0-0.725-0.323-0.726-0.723 0.003-0.404 0.331-0.73 0.735-0.73 0 0 0.001 0 0.001 0zM26.278 6.765v-4.582c-0.016-0.351-0.258-0.64-0.583-0.728l-9.548-1.454h-0.218l-9.549 1.453c-0.362 0.058-0.638 0.359-0.659 0.728 0.016 0.353 0.258 0.642 0.583 0.73l2.354 0.36v4.73c0.080 1.805 0.291 3.505 0.625 5.16 0.129 1.066 0.628 2.204 1.37 3.142l0.136 0.21c1.236 1.472 3.078 2.4 5.136 2.4 0.026 0 0.052-0 0.078-0 0.003 0 0.012 0 0.021 0 2.073 0 3.93-0.928 5.177-2.39l0.155-0.233c0.749-0.891 1.252-2.011 1.393-3.242s0.227-1.411 0.374-2.793c0.002-0.021 0.004-0.046 0.004-0.072 0-0.382-0.293-0.695-0.666-0.728-0.036-0.006-0.074-0.009-0.113-0.009-0.375 0-0.68 0.296-0.696 0.667-0.147 1.307-0.365 2.689-0.365 2.689-0.111 0.983-0.509 1.856-1.106 2.554l-0.142 0.211c-0.972 1.157-2.42 1.888-4.038 1.888s-3.066-0.731-4.032-1.88l-0.154-0.226c-0.605-0.709-1.005-1.609-1.099-2.599-0.257-1.363-0.466-3.008-0.582-4.68l-0.008-4.58 5.728 0.877h0.294l5.728-0.877v3.2c-1.806 0.365-3.882 0.574-6.007 0.574-1.481 0-2.939-0.102-4.367-0.298 0.133 0.013 0.095 0.010 0.057 0.010-0.386 0-0.7 0.313-0.7 0.7 0 0.348 0.254 0.637 0.587 0.691 1.259 0.185 2.708 0.29 4.182 0.29 0.106 0 0.212-0.001 0.318-0.002 0.081 0.001 0.195 0.002 0.309 0.002 2.303 0 4.545-0.264 6.696-0.764 0.132-0.050 0.374-0.34 0.39-0.689l0-3.931 1.466-0.218v3.712c-0.438 0.244-0.73 0.705-0.73 1.234 0 0 0 0.001 0 0.001 0.052 0.77 0.69 1.375 1.469 1.375s1.416-0.605 1.469-1.37c0-0.005 0-0.007 0-0.008 0-0.53-0.294-0.991-0.729-1.228zM16 2.912l-4.698-0.73 4.698-0.73 4.698 0.73zM25.542 21.382l-4.992-1.018c-0.053-0.018-0.114-0.029-0.178-0.029-0.161 0-0.307 0.067-0.411 0.176l-3.008 2.471c-0.26 0.204-0.593 0.327-0.954 0.327s-0.693-0.123-0.957-0.329c0.002 0.003 0.001 0.003 0 0.003-0.040 0-0.072-0.031-0.074-0.070l-1.536-1.024c-0.114-0.078-0.256-0.125-0.408-0.125-0.262 0-0.492 0.138-0.62 0.346-0.081 0.117-0.128 0.258-0.128 0.409 0 0.258 0.136 0.484 0.341 0.61l1.475 1.019c0.316 0.238 0.68 0.435 1.072 0.574l0.028 3.644c0 0.405 0.328 0.733 0.733 0.733s0.733-0.328 0.733-0.733v-3.635c0.456-0.099 0.853-0.303 1.181-0.585l2.71-2.256 4.627 0.947c1 0.203 1.745 1.068 1.76 2.11l0 4.872c0.001 0.011 0.001 0.024 0.001 0.037 0 0.383-0.311 0.694-0.694 0.694-0.015 0-0.030-0-0.045-0.001l-20.478 0c-0.013 0.001-0.028 0.001-0.043 0.001-0.383 0-0.694-0.311-0.694-0.694 0-0.013 0-0.026 0.001-0.039l-0-4.869c-0-0.005-0-0.011-0-0.017 0-1.047 0.757-1.917 1.754-2.094l5.005-1.019c0.341-0.071 0.594-0.369 0.594-0.726 0-0.409-0.332-0.741-0.741-0.741-0.052 0-0.103 0.005-0.152 0.016l-4.987 1.017c-1.678 0.35-2.923 1.81-2.938 3.563v4.872c-0 0.009-0 0.019-0 0.029 0 1.189 0.964 2.154 2.154 2.154 0.017 0 0.034-0 0.051-0.001l20.554 0c0.014 0 0.031 0.001 0.048 0.001 1.189 0 2.154-0.964 2.154-2.154 0-0.010-0-0.021-0-0.031l0-4.869c0-0.007 0-0.014 0-0.022 0-1.755-1.254-3.217-2.915-3.539zM16.736 13.818h-1.472c-0.401 0-0.726 0.325-0.726 0.726s0.325 0.726 0.726 0.726h1.472c0.401 0 0.726-0.325 0.726-0.726s-0.325-0.726-0.726-0.726z"></path>
</svg>
