<!-- Generated by IcoMoon.io -->
<svg version="1.1" xmlns="http://www.w3.org/2000/svg" width="32" height="32" viewBox="0 0 32 32">
<title>support</title>
<path fill="#fff" d="M18.901 0c-0.003 0-0.006 0-0.009 0-3.367 0-6.433 1.285-8.736 3.39 0.51 0.783 0.816 1.741 0.842 2.768l0 0.007c0.011 0.448 0.043 0.896 0.075 1.344 1.767-2.452 4.614-4.030 7.829-4.032 5.351 0.061 9.665 4.413 9.665 9.772 0 5.303-4.224 9.62-9.491 9.769 0.466 0.406 0.968 0.8 1.48 1.163v0c0.689 0.493 1.246 1.126 1.639 1.859 5.7-1.553 9.803-6.684 9.803-12.774 0-7.267-5.843-13.169-13.087-13.266zM18.571 27.019c-1.493-1.205-2.421-2.016-3.765-3.264-0.35-0.354-0.83-0.579-1.362-0.597-0.008-0-0.013-0-0.017-0-0.397 0-0.761 0.141-1.045 0.376-0.317 0.264-0.637 0.542-0.947 0.808-2.489-2.97-4.415-6.505-5.559-10.375l1.132-0.558c0.711-0.285 1.205-0.969 1.205-1.768 0-0.141-0.015-0.278-0.044-0.41-0.275-2.057-0.424-3.081-0.606-4.969-0.010-0.951-0.716-1.735-1.633-1.865-0.149-0.012-0.287-0.022-0.426-0.022-3.403 0-6.368 3.989-5.269 8.864 1.447 6.289 4.436 11.737 8.55 16.114 1.409 1.575 3.452 2.59 5.733 2.648 0.079 0.003 0.159 0.005 0.239 0.005 1.892 0 3.544-1.026 4.43-2.551 0.137-0.27 0.209-0.559 0.209-0.866 0-0.648-0.324-1.221-0.819-1.565zM14.955 13.493c-0.685 0.6-1.282 1.272-1.79 2.012-0.228 0.371-0.392 0.758-0.497 1.17-0.017 0.072-0.022 0.121-0.022 0.172 0 0.148 0.050 0.284 0.134 0.392 0.114 0.146 0.29 0.241 0.489 0.244h4.321c0.536 0 0.971-0.435 0.971-0.971s-0.435-0.971-0.971-0.971h-1.952c0.021-0.021 0.032-0.043 0.053-0.064 0.128-0.139 0.437-0.448 0.928-0.896 0.377-0.34 0.722-0.695 1.043-1.072 0.27-0.339 0.492-0.708 0.662-1.104 0.147-0.365 0.226-0.753 0.226-1.158 0-0.013-0-0.025-0-0.038 0-0.012 0-0.027 0-0.043 0-0.697-0.295-1.325-0.767-1.767-0.506-0.454-1.177-0.73-1.912-0.73-0.052 0-0.104 0.001-0.155 0.004-0.027-0.002-0.067-0.002-0.108-0.002-0.708 0-1.361 0.233-1.888 0.627-0.319 0.26-0.572 0.606-0.722 1.002-0.049 0.125-0.075 0.251-0.075 0.383 0 0.518 0.393 0.945 0.897 0.998l0.1 0c0.001 0 0.001 0 0.002 0 0.441 0 0.817-0.282 0.956-0.676 0.038-0.129 0.1-0.233 0.184-0.316 0.144-0.146 0.345-0.236 0.566-0.236 0.018 0 0.037 0.001 0.055 0.002 0.012-0.001 0.030-0.002 0.047-0.002 0.22 0 0.421 0.086 0.57 0.226 0.134 0.15 0.217 0.35 0.217 0.568 0 0.029-0.001 0.057-0.004 0.085-0.010 0.314-0.116 0.605-0.291 0.843-0.382 0.486-0.798 0.919-1.254 1.308zM23.605 8.672h-0.715c-0.002-0-0.004-0-0.006-0-0.212 0-0.398 0.11-0.505 0.275l-3.351 4.941c-0.087 0.134-0.139 0.297-0.139 0.473 0 0.006 0 0.012 0 0.018v0.799c0 0 0 0.001 0 0.001 0 0.344 0.276 0.623 0.618 0.628h2.742v0.672c0 0.548 0.444 0.992 0.992 0.992s0.992-0.444 0.992-0.992v-0.672h0.096c0.515 0 0.933-0.418 0.933-0.933s-0.418-0.933-0.933-0.933h-0.096v-4.64c0-0.002 0-0.003 0-0.005 0-0.345-0.279-0.624-0.624-0.624-0.002 0-0.004 0-0.006 0zM22.251 13.941h-1.227l1.227-1.845v1.845z"></path>
</svg>
