<!-- Generated by IcoMoon.io -->
<svg version="1.1" xmlns="http://www.w3.org/2000/svg" width="32" height="32" viewBox="0 0 32 32">
<title>tel</title>
<path fill="#fff" d="M31.933 24.8c-0.445-0.546-1.027-0.964-1.693-1.205-0.32-0.169-0.734-0.395-1.254-0.689s-1.013-0.547-1.453-0.787-0.84-0.48-1.213-0.707c-0.067-0.053-0.253-0.187-0.573-0.4-0.232-0.174-0.494-0.338-0.769-0.479-0.221-0.112-0.445-0.17-0.683-0.174-0.46 0.079-0.853 0.315-1.132 0.65-0.455 0.431-0.867 0.893-1.236 1.388-0.402 0.546-0.796 1.003-1.22 1.428-0.25 0.331-0.612 0.566-1.029 0.651-0.201-0.007-0.378-0.051-0.541-0.122-0.176-0.056-0.33-0.12-0.479-0.193-0.085-0.044-0.258-0.15-0.525-0.31s-0.4-0.24-0.427-0.267c-3.98-2.134-7.16-5.313-9.235-9.174-0.085-0.146-0.165-0.292-0.325-0.546s-0.267-0.44-0.32-0.547c-0.063-0.127-0.126-0.281-0.179-0.44-0.075-0.179-0.118-0.356-0.127-0.543 0.087-0.431 0.322-0.793 0.649-1.040 0.43-0.427 0.887-0.821 1.371-1.18 0.555-0.417 1.016-0.828 1.443-1.273 0.342-0.285 0.578-0.679 0.656-1.126-0.002-0.25-0.061-0.474-0.162-0.673-0.152-0.298-0.316-0.56-0.5-0.806-0.129-0.207-0.26-0.394-0.401-0.574-0.215-0.372-0.442-0.772-0.695-1.198s-0.507-0.92-0.787-1.453-0.52-0.933-0.68-1.227c-0.249-0.693-0.668-1.275-1.206-1.714-0.124-0.050-0.26-0.075-0.401-0.075-0.030 0-0.060 0.001-0.090 0.003-0.571 0.015-1.121 0.097-1.646 0.238-0.546 0.112-1.068 0.278-1.566 0.49-1.009 0.636-1.837 1.585-2.33 2.714-0.744 1.257-1.175 2.726-1.175 4.296 0 0.408 0.029 0.809 0.085 1.201 0.070 0.462 0.167 0.904 0.293 1.333 0.115 0.422 0.235 0.782 0.315 1.008s0.24 0.653 0.467 1.267 0.36 0.973 0.4 1.107c0.539 1.528 1.178 2.844 1.944 4.073 1.416 2.179 3.030 4.149 4.837 5.921 1.782 1.823 3.751 3.436 5.886 4.818 1.276 0.796 2.592 1.436 3.977 1.93 0.276 0.084 0.65 0.218 1.25 0.444s1.027 0.387 1.267 0.467 0.587 0.2 1.080 0.333c0.358 0.108 0.8 0.205 1.251 0.273 0.403 0.058 0.804 0.087 1.212 0.087 1.57 0 3.039-0.431 4.295-1.181 1.129-0.486 2.078-1.315 2.72-2.353 0.206-0.468 0.371-0.99 0.485-1.531 0.139-0.531 0.221-1.080 0.236-1.645 0.002-0.035 0.003-0.065 0.003-0.096 0-0.141-0.026-0.277-0.072-0.402z"></path>
</svg>
