<!-- Generated by IcoMoon.io -->
<svg version="1.1" xmlns="http://www.w3.org/2000/svg" width="39" height="32" viewBox="0 0 39 32">
<title>twiter</title>
<path fill="#fff" d="M39.41 3.796c-1.355 0.611-2.928 1.052-4.576 1.244 1.608-0.983 2.869-2.536 3.461-4.389-1.46 0.839-3.179 1.516-5.011 1.878-1.579-1.56-3.675-2.541-6-2.541-4.463 0-8.081 3.618-8.081 8.081 0 0.001 0 0.002 0 0.002 0.003 0.657 0.075 1.295 0.211 1.91-3.43-0.223-6.605-1.124-9.425-2.607-2.79-1.449-5.242-3.452-7.211-5.865-0.724 1.126-1.132 2.531-1.132 4.032 0 1.413 0.362 2.741 0.998 3.897 0.623 1.131 1.509 2.097 2.576 2.815-1.32-0.030-2.571-0.404-3.661-1.028l0.039 0.12c-0 0.032-0.001 0.070-0.001 0.107 0 1.923 0.695 3.683 1.848 5.044 1.141 1.398 2.746 2.399 4.579 2.769-0.587 0.183-1.319 0.283-2.074 0.284-0.541-0.003-1.069-0.048-1.585-0.131 1.128 3.239 4.091 5.542 7.602 5.61-2.67 2.151-6.11 3.452-9.854 3.452-0.058 0-0.117-0-0.175-0.001-0.021 0-0.055 0-0.090 0-0.652 0-1.296-0.036-1.929-0.107 3.528 2.28 7.76 3.634 12.307 3.634 0.061 0 0.123-0 0.184-0.001 0.041 0 0.101 0.001 0.16 0.001 2.835 0 5.553-0.5 8.072-1.416 2.317-0.821 4.459-2.061 6.32-3.625 1.738-1.493 3.264-3.226 4.525-5.146 1.248-1.879 2.231-3.941 2.899-6.14 0.642-2.108 0.989-4.341 0.994-6.654q0-0.702-0.025-1.053c1.59-1.161 2.935-2.544 4.019-4.119z"></path>
</svg>
