<!-- Generated by IcoMoon.io -->
<svg version="1.1" xmlns="http://www.w3.org/2000/svg" width="32" height="32" viewBox="0 0 32 32">
<title>youtube</title>
<path fill="#fff" d="M30.241 1.758c-1.052-1.087-2.524-1.761-4.154-1.761-0.030 0-0.060 0-0.090 0.001l-19.997-0c-3.313 0.005-5.998 2.69-6.002 6.002v20c0.005 3.313 2.689 5.998 6.002 6.003h20c3.313-0.005 5.997-2.69 6.002-6.002v-20c0-0.026 0.001-0.057 0.001-0.088 0-1.63-0.675-3.102-1.76-4.153zM18.897 4.622h1.396v5.667c-0.002 0.045-0.004 0.098-0.004 0.152 0 0.138 0.009 0.273 0.026 0.406-0.002-0.007-0.003 0.002-0.003 0.012 0 0.169 0.137 0.307 0.307 0.307 0.010 0 0.019-0 0.029-0.001 0.383-0.069 0.7-0.31 0.871-0.639l0.003-5.903h1.396v7.71h-1.396v-0.834c-0.375 0.509-0.943 0.857-1.593 0.936-0.034 0.003-0.060 0.004-0.087 0.004-0.373 0-0.691-0.232-0.818-0.56-0.083-0.302-0.13-0.642-0.13-0.994 0-0.056 0.001-0.111 0.003-0.167l-0-6.097zM13.625 7.126c-0.005-0.065-0.008-0.14-0.008-0.216 0-0.59 0.165-1.141 0.453-1.61 0.335-0.469 0.892-0.781 1.522-0.781 0.034 0 0.067 0.001 0.1 0.003 0.014-0.001 0.035-0.001 0.057-0.001 0.64 0 1.207 0.31 1.56 0.787 0.283 0.461 0.449 1.012 0.449 1.602 0 0.076-0.003 0.151-0.008 0.226l0.001 2.701c0.006 0.073 0.010 0.158 0.010 0.244 0 0.581-0.167 1.123-0.455 1.581-0.35 0.471-0.917 0.78-1.557 0.78-0.022 0-0.043-0-0.064-0.001-0.025 0.002-0.059 0.003-0.092 0.003-0.63 0-1.187-0.311-1.526-0.788-0.283-0.461-0.449-1.013-0.449-1.603 0-0.076 0.003-0.151 0.008-0.226l-0.001-2.701zM9.874 1.979l1.104 4.063 1.062-4.063h1.563l-1.875 6.166v4.188h-1.542v-4.188c-0.301-1.319-0.63-2.42-1.022-3.49q-0.415-1.24-0.416-1.24l-0.5-1.438h1.626zM27.044 27.125c-0.14 0.607-0.453 1.126-0.884 1.519-0.419 0.396-0.961 0.661-1.563 0.73q-2.867 0.314-8.597 0.314t-8.584-0.313c-0.615-0.071-1.157-0.335-1.575-0.731-0.431-0.394-0.744-0.913-0.88-1.5-0.276-1.419-0.432-3.029-0.432-4.675 0-0.268 0.004-0.535 0.012-0.801-0.007-0.176-0.011-0.428-0.011-0.682 0-1.66 0.155-3.284 0.452-4.859 0.109-0.451 0.423-0.976 0.858-1.37 0.427-0.393 0.976-0.655 1.585-0.72 2.227-0.206 4.803-0.322 7.405-0.322 0.412 0 0.822 0.003 1.233 0.009 0.288-0.006 0.702-0.009 1.116-0.009 2.607 0 5.187 0.117 7.735 0.345 0.288 0.047 0.833 0.307 1.259 0.697 0.441 0.392 0.759 0.918 0.89 1.514 0.262 1.415 0.41 3.020 0.41 4.661 0 0.273-0.004 0.544-0.012 0.815 0.008 0.185 0.012 0.449 0.012 0.713 0 1.649-0.156 3.262-0.455 4.825zM6.248 17.853h1.626v8.814h1.542v-8.813h1.667v-1.458h-4.834v1.458zM13.875 24.854c-0.174 0.336-0.491 0.577-0.868 0.644-0.015 0.002-0.024 0.002-0.033 0.002-0.159 0-0.288-0.129-0.288-0.288 0-0.009 0-0.018 0.001-0.026-0.016-0.117-0.025-0.253-0.025-0.391 0-0.053 0.001-0.105 0.004-0.157l-0-5.619h-1.375v6.042c-0.003 0.053-0.004 0.114-0.004 0.176 0 0.338 0.047 0.664 0.135 0.974 0.097 0.318 0.409 0.563 0.779 0.563 0.032 0 0.063-0.002 0.094-0.005 0.655-0.071 1.22-0.422 1.577-0.93l0.005 0.827h1.396v-7.644h-1.395v5.834zM19.272 18.916c-0.594 0.044-1.105 0.362-1.413 0.826l-0.004-3.347h-1.396v10.272h1.396v-0.749c0.311 0.476 0.821 0.8 1.41 0.854 0.023 0.001 0.042 0.002 0.061 0.002 0.522 0 0.956-0.375 1.049-0.87 0.097-0.389 0.152-0.828 0.152-1.28 0-0.087-0.002-0.173-0.006-0.259l0-3.030c0.004-0.075 0.006-0.164 0.006-0.252 0-0.457-0.055-0.902-0.159-1.327-0.086-0.464-0.52-0.838-1.042-0.838-0.019 0-0.038 0-0.057 0.001zM19.146 24.48q0 1.023-0.604 1.023c-0.275-0.014-0.518-0.14-0.686-0.333l-0.001-4.669c0.17-0.193 0.413-0.319 0.685-0.333q0.607-0 0.607 1.041v3.274zM24.334 24.47q0 0.218-0.010 0.344c-0.007 0.083-0.010 0.132-0.010 0.146-0.032 0.306-0.289 0.542-0.601 0.542-0.009 0-0.017-0-0.026-0.001q-0.707 0-0.707-1.063v-1.354h2.771v-1.586c0.005-0.066 0.008-0.142 0.008-0.22 0-0.581-0.166-1.124-0.453-1.583-0.336-0.47-0.893-0.782-1.523-0.782-0.034 0-0.067 0.001-0.1 0.003-0.020-0.001-0.048-0.002-0.076-0.002-0.646 0-1.22 0.31-1.582 0.788-0.271 0.449-0.43 0.985-0.43 1.558 0 0.083 0.003 0.166 0.010 0.248l-0.001 2.677c-0.006 0.070-0.009 0.152-0.009 0.235 0 0.576 0.167 1.114 0.454 1.567 0.362 0.473 0.939 0.782 1.589 0.782 0.032 0 0.065-0.001 0.097-0.002 0.026 0.002 0.062 0.003 0.099 0.003 0.649 0 1.222-0.329 1.56-0.83 0.164-0.243 0.275-0.526 0.316-0.83 0.029-0.242 0.044-0.511 0.044-0.784 0-0.043-0-0.086-0.001-0.129l0-0.18h-1.417v0.448zM22.98 21.23q0-1.062 0.687-1.062t0.688 1.062v0.709h-1.373v-0.709zM15.687 11.166q0.665 0 0.665-1.062v-3.251q0-1.083-0.665-1.083t-0.665 1.083v3.251q-0.002 1.062 0.665 1.062z"></path>
</svg>
