<?xml version="1.0" encoding="utf-8"?>
<!-- Generator: Adobe Illustrator 17.0.0, SVG Export Plug-In . SVG Version: 6.00 Build 0)  -->
<!DOCTYPE svg PUBLIC "-//W3C//DTD SVG 1.1//EN" "http://www.w3.org/Graphics/SVG/1.1/DTD/svg11.dtd">
<svg version="1.1" id="Layer_1" xmlns="http://www.w3.org/2000/svg" xmlns:xlink="http://www.w3.org/1999/xlink" x="0px" y="0px"
	 width="512px" height="512px" viewBox="0 0 512 512" enable-background="new 0 0 512 512" xml:space="preserve">
<path fill="#FCFCFC" d="M19,1h225.73c-17.804,0.85-35.675,4.52-51.813,12.57c-18.285,9.01-34.635,23.36-44.11,42.15
	c-8.714,17.94-10.967,38.42-10.553,58.28c0.308,13.82,1.984,27.55,3.861,41.22c-4.025-0.37-8.368,0.81-10.765,4.42
	c-5.084,7.26-4.988,16.87-4.015,25.41c1.608,11.33,5.72,22.44,12.633,31.43c2.08,2.8,5.267,4.73,6.528,8.14
	c7.395,17.47,16.022,34.48,26.845,49.95c11.593,16.56,26.287,31.53,44.63,39.7c20.221,8.98,44.004,9.01,64.215-0.04
	c18.333-8.16,33.008-23.13,44.601-39.69c10.64-15.28,19.267-32.01,26.537-49.27c0.607-1.33,1.175-2.73,2.195-3.79
	c10.765-10.32,16.427-25.44,17.669-40.39c0.453-7.72-0.154-16.4-5.238-22.51c-2.484-3.01-6.432-3.57-10.033-3.32
	c3.775-26.14,6.422-53.18,0.539-79.21c-2.455-9.48-5.633-18.9-10.958-27.08c-12.556-19.87-32.546-33.82-54.105-41.11
	C281.417,3.7,268.841,1.82,256.266,1H512v512h-59.978c8.859-0.61,17.438-5.17,22.801-12.57c4.545-6.03,6.654-13.78,6.403-21.4
	c-0.241-14.95,0.356-30.04-2.167-44.82c-2.099-12.49-8.002-23.75-13.663-34.81c-2.609-5.63-7.694-9.32-12.219-13.17
	c-14.482-11.45-31.535-18.65-48.626-24.73c-25.594-8.9-51.9-15.37-77.416-24.53c1.502,12.98,2.167,26.29-0.472,39.17
	c-1.945,9.72-6.249,18.68-10.611,27.43c-15.734,30.54-37.428,58.66-65.977,77.14c-20.962-13.48-38.217-32.45-52.16-53.42
	c-8.3-12.63-15.608-26.01-21.241-40.15c-6.057-15.9-5.633-33.46-3.62-50.15c-33.884,12.29-69.54,19.25-102.355,34.68
	c-11.622,5.54-22.686,12.63-31.91,21.89c-2.6,2.51-4.015,5.95-5.691,9.13c-4.988,9.55-9.677,19.48-11.747,30.22
	c-2.022,10.31-2.07,20.88-2.349,31.36V1z"/>
<path fill="#343434" d="M253.43,1h11.98c13.06,0.82,26.12,2.7,38.56,6.86c22.39,7.29,43.15,21.24,56.19,41.11
	c5.53,8.18,8.83,17.6,11.38,27.08c6.11,26.03,3.36,53.07-0.56,79.21c3.74-0.25,7.84,0.31,10.42,3.32
	c5.28,6.11,5.91,14.79,5.44,22.51c-1.29,14.95-7.17,30.07-18.35,40.39c-1.06,1.06-1.65,2.46-2.28,3.79
	c-7.55,17.26-16.51,33.99-27.56,49.27c-12.04,16.56-27.28,31.53-46.32,39.69c-20.99,9.05-45.69,9.02-66.69,0.04
	c-19.05-8.17-34.31-23.14-46.35-39.7c-11.24-15.47-20.2-32.48-27.88-49.95c-1.31-3.41-4.62-5.34-6.78-8.14
	c-7.18-8.99-11.45-20.1-13.12-31.43c-1.01-8.54-1.11-18.15,4.17-25.41c2.49-3.61,7-4.79,11.18-4.42
	c-1.95-13.67-3.69-27.4-4.01-41.22c-0.43-19.86,1.91-40.34,10.96-58.28c9.84-18.79,26.82-33.14,45.81-42.15
	C216.38,5.52,234.94,1.85,253.43,1z"/>
<path fill="#FCFCFC" d="M190.17,82.23c5.99-3.83,12.9-6.03,19.94-6.91c14.08,14.27,30.1,26.95,48.48,35.2
	c30.13,13.77,63.63,17.51,96.39,18.91c-0.56,18.1-4.69,35.82-8.09,53.53c-0.28,2.25-1.97,4.29-1.25,6.62
	c2.9-7.98,5.5-16.32,10.69-23.19c1.76-2.22,4.5-4.78,7.59-3.74c5.23,2.6,7.59,8.76,7.1,14.35c-0.46,12.58-4.97,25.86-14.93,34.07
	c-1.21,1.19-2.14,2.63-2.86,4.17c-8.13,18.3-16.35,36.74-27.72,53.32c-10.4,15.42-25.13,28.88-43.53,33.55
	c-18.27,4.54-38.27,4.04-55.71-3.43c-18.96-8.31-31.99-25.54-41.94-43.07c-6.43-11.2-11.87-22.93-17.13-34.71
	c-1.69-3.78-2.97-8-6.28-10.73c-8.15-6.85-11.96-17.47-13.63-27.69c-0.5-5.53-1.14-11.92,2.68-16.49c1.54-1.73,3.48-3.79,6.01-3.52
	c3.36,0.64,5.53,3.61,7.3,6.29c3.75,6.18,6.36,12.97,8.59,19.81c-3.23-20.79-9.11-41.38-8.93-62.6c0.23-4.23-0.85-8.83,1.34-12.71
	C170.21,101.07,178.54,89.55,190.17,82.23z"/>
<path fill="#343434" d="M72.69,371.67c34.08-15.43,71.11-22.39,106.3-34.68c-2.09,16.69-2.53,34.25,3.76,50.15
	c5.85,14.14,13.44,27.52,22.06,40.15c14.48,20.97,32.4,39.94,54.17,53.42c29.65-18.48,52.18-46.6,68.52-77.14
	c4.53-8.75,9-17.71,11.02-27.43c2.74-12.88,2.05-26.19,0.49-39.17c26.5,9.16,53.82,15.63,80.4,24.53
	c17.75,6.08,35.46,13.28,50.5,24.73c4.7,3.85,9.98,7.54,12.69,13.17c5.88,11.06,12.01,22.32,14.19,34.81
	c2.62,14.78,2,29.87,2.25,44.82c0.26,7.62-1.93,15.37-6.65,21.4c-5.57,7.4-14.48,11.96-23.68,12.57H49.3
	c-8.5-0.57-16.79-4.44-22.37-10.93c-4.55-5.06-7.11-11.63-7.93-18.32v-19.48c0.29-10.48,0.34-21.05,2.44-31.36
	c2.15-10.74,7.02-20.67,12.2-30.22c1.74-3.18,3.21-6.62,5.91-9.13C49.13,384.3,60.62,377.21,72.69,371.67z"/>
<path fill="#343434" d="M241.84,337.77c1.14-1.08,2.75-0.77,4.17-0.82c9.65,0.21,19.32-0.21,28.96,0.17
	c6.66,3.7,11.79,9.65,16.08,15.85c-5.71,9.53-13.62,17.52-22.22,24.45c7.3,18.55,14.75,37.04,22.19,55.53
	c-8.07,12.98-19.72,23.24-32.04,32.06c-12.45-8.64-24.53-18.65-32.05-32.05c7.2-17.56,14.07-35.26,21.23-52.84
	c0.3-1.03,1.39-2.59-0.17-3.21c-8.53-6.44-16.26-14.23-21.09-23.87C230.97,347.15,236.08,342,241.84,337.77z"/>
<path fill="#FCFCFC" d="M19,483.75c0.82,6.69,3.38,13.26,7.93,18.32c5.58,6.49,13.87,10.36,22.37,10.93H19V483.75z"/>
</svg>
