<?xml version="1.0" encoding="UTF-8" ?>
<!DOCTYPE svg PUBLIC "-//W3C//DTD SVG 1.1//EN" "http://www.w3.org/Graphics/SVG/1.1/DTD/svg11.dtd">
<svg width="512pt" height="512pt" viewBox="0 0 512 512" version="1.1" xmlns="http://www.w3.org/2000/svg">
<path fill="#fcfcfc" d=" M 0.00 0.00 L 234.43 0.00 C 215.94 0.85 197.38 4.52 180.62 12.57 C 161.63 21.58 144.65 35.93 134.81 54.72 C 125.76 72.66 123.42 93.14 123.85 113.00 C 124.17 126.82 125.91 140.55 127.86 154.22 C 123.68 153.85 119.17 155.03 116.68 158.64 C 111.40 165.90 111.50 175.51 112.51 184.05 C 114.18 195.38 118.45 206.49 125.63 215.48 C 127.79 218.28 131.10 220.21 132.41 223.62 C 140.09 241.09 149.05 258.10 160.29 273.57 C 172.33 290.13 187.59 305.10 206.64 313.27 C 227.64 322.25 252.34 322.28 273.33 313.23 C 292.37 305.07 307.61 290.10 319.65 273.54 C 330.70 258.26 339.66 241.53 347.21 224.27 C 347.84 222.94 348.43 221.54 349.49 220.48 C 360.67 210.16 366.55 195.04 367.84 180.09 C 368.31 172.37 367.68 163.69 362.40 157.58 C 359.82 154.57 355.72 154.01 351.98 154.26 C 355.90 128.12 358.65 101.08 352.54 75.05 C 349.99 65.57 346.69 56.15 341.16 47.97 C 328.12 28.10 307.36 14.15 284.97 6.86 C 272.53 2.70 259.47 0.82 246.41 0.00 L 512.00 0.00 L 512.00 512.00 L 449.71 512.00 C 458.91 511.39 467.82 506.83 473.39 499.43 C 478.11 493.40 480.30 485.65 480.04 478.03 C 479.79 463.08 480.41 447.99 477.79 433.21 C 475.61 420.72 469.48 409.46 463.60 398.40 C 460.89 392.77 455.61 389.08 450.91 385.23 C 435.87 373.78 418.16 366.58 400.41 360.50 C 373.83 351.60 346.51 345.13 320.01 335.97 C 321.57 348.95 322.26 362.26 319.52 375.14 C 317.50 384.86 313.03 393.82 308.50 402.57 C 292.16 433.11 269.63 461.23 239.98 479.71 C 218.21 466.23 200.29 447.26 185.81 426.29 C 177.19 413.66 169.60 400.28 163.75 386.14 C 157.46 370.24 157.90 352.68 159.99 335.99 C 124.80 348.28 87.77 355.24 53.69 370.67 C 41.62 376.21 30.13 383.30 20.55 392.56 C 17.85 395.07 16.38 398.51 14.64 401.69 C 9.46 411.24 4.59 421.17 2.44 431.91 C 0.34 442.22 0.29 452.79 0.00 463.27 L 0.00 0.00 Z" />
<path fill="#343434" d=" M 234.43 0.00 L 246.41 0.00 C 259.47 0.82 272.53 2.70 284.97 6.86 C 307.36 14.15 328.12 28.10 341.16 47.97 C 346.69 56.15 349.99 65.57 352.54 75.05 C 358.65 101.08 355.90 128.12 351.98 154.26 C 355.72 154.01 359.82 154.57 362.40 157.58 C 367.68 163.69 368.31 172.37 367.84 180.09 C 366.55 195.04 360.67 210.16 349.49 220.48 C 348.43 221.54 347.84 222.94 347.21 224.27 C 339.66 241.53 330.70 258.26 319.65 273.54 C 307.61 290.10 292.37 305.07 273.33 313.23 C 252.34 322.28 227.64 322.25 206.64 313.27 C 187.59 305.10 172.33 290.13 160.29 273.57 C 149.05 258.10 140.09 241.09 132.41 223.62 C 131.10 220.21 127.79 218.28 125.63 215.48 C 118.45 206.49 114.18 195.38 112.51 184.05 C 111.50 175.51 111.40 165.90 116.68 158.64 C 119.17 155.03 123.68 153.85 127.86 154.22 C 125.91 140.55 124.17 126.82 123.85 113.00 C 123.42 93.14 125.76 72.66 134.81 54.72 C 144.65 35.93 161.63 21.58 180.62 12.57 C 197.38 4.52 215.94 0.85 234.43 0.00 Z" />
<path fill="#fcfcfc" d=" M 171.17 81.23 C 177.16 77.40 184.07 75.20 191.11 74.32 C 205.19 88.59 221.21 101.27 239.59 109.52 C 269.72 123.29 303.22 127.03 335.98 128.43 C 335.42 146.53 331.29 164.25 327.89 181.96 C 327.61 184.21 325.92 186.25 326.64 188.58 C 329.54 180.60 332.14 172.26 337.33 165.39 C 339.09 163.17 341.83 160.61 344.92 161.65 C 350.15 164.25 352.51 170.41 352.02 176.00 C 351.56 188.58 347.05 201.86 337.09 210.07 C 335.88 211.26 334.95 212.70 334.23 214.24 C 326.10 232.54 317.88 250.98 306.51 267.56 C 296.11 282.98 281.38 296.44 262.98 301.11 C 244.71 305.65 224.71 305.15 207.27 297.68 C 188.31 289.37 175.28 272.14 165.33 254.61 C 158.90 243.41 153.46 231.68 148.20 219.90 C 146.51 216.12 145.23 211.90 141.92 209.17 C 133.77 202.32 129.96 191.70 128.29 181.48 C 127.79 175.95 127.15 169.56 130.97 164.99 C 132.51 163.26 134.45 161.20 136.98 161.47 C 140.34 162.11 142.51 165.08 144.28 167.76 C 148.03 173.94 150.64 180.73 152.87 187.57 C 149.64 166.78 143.76 146.19 143.94 124.97 C 144.17 120.74 143.09 116.14 145.28 112.26 C 151.21 100.07 159.54 88.55 171.17 81.23 Z" />
<path fill="#343434" d=" M 53.69 370.67 C 87.77 355.24 124.80 348.28 159.99 335.99 C 157.90 352.68 157.46 370.24 163.75 386.14 C 169.60 400.28 177.19 413.66 185.81 426.29 C 200.29 447.26 218.21 466.23 239.98 479.71 C 269.63 461.23 292.16 433.11 308.50 402.57 C 313.03 393.82 317.50 384.86 319.52 375.14 C 322.26 362.26 321.57 348.95 320.01 335.97 C 346.51 345.13 373.83 351.60 400.41 360.50 C 418.16 366.58 435.87 373.78 450.91 385.23 C 455.61 389.08 460.89 392.77 463.60 398.40 C 469.48 409.46 475.61 420.72 477.79 433.21 C 480.41 447.99 479.79 463.08 480.04 478.03 C 480.30 485.65 478.11 493.40 473.39 499.43 C 467.82 506.83 458.91 511.39 449.71 512.00 L 30.30 512.00 C 21.80 511.43 13.51 507.56 7.93 501.07 C 3.38 496.01 0.82 489.44 0.00 482.75 L 0.00 463.27 C 0.29 452.79 0.34 442.22 2.44 431.91 C 4.59 421.17 9.46 411.24 14.64 401.69 C 16.38 398.51 17.85 395.07 20.55 392.56 C 30.13 383.30 41.62 376.21 53.69 370.67 Z" />
<path fill="#343434" d=" M 222.84 336.77 C 223.98 335.69 225.59 336.00 227.01 335.95 C 236.66 336.16 246.33 335.74 255.97 336.12 C 262.63 339.82 267.76 345.77 272.05 351.97 C 266.34 361.50 258.43 369.49 249.83 376.42 C 257.13 394.97 264.58 413.46 272.02 431.95 C 263.95 444.93 252.30 455.19 239.98 464.01 C 227.53 455.37 215.45 445.36 207.93 431.96 C 215.13 414.40 222.00 396.70 229.16 379.12 C 229.46 378.09 230.55 376.53 228.99 375.91 C 220.46 369.47 212.73 361.68 207.90 352.04 C 211.97 346.15 217.08 341.00 222.84 336.77 Z" />
<path fill="#fcfcfc" d=" M 0.00 482.75 C 0.82 489.44 3.38 496.01 7.93 501.07 C 13.51 507.56 21.80 511.43 30.30 512.00 L 0.00 512.00 L 0.00 482.75 Z" />
</svg>
